<svg width="161" height="168" viewBox="0 0 161 168" fill="none" xmlns="http://www.w3.org/2000/svg">
<g clip-path="url(#clip0_1_31)">
<path d="M49.402 33.191L49.328 33.1264C49.2566 33.0606 49.1814 32.999 49.1028 32.9419C48.8082 32.7148 48.4659 32.5566 48.1017 32.4792C47.8031 32.4261 47.4971 32.4347 47.2029 32.5045C46.9087 32.5743 46.6326 32.7039 46.3921 32.885C45.703 33.3977 45.1947 34.1126 44.9385 34.9294C44.8602 35.1618 44.8023 35.4007 44.7654 35.6432C44.7532 35.7055 44.7483 35.7687 44.7406 35.831L44.7296 35.9254L44.7273 36.0122C44.7225 36.1465 44.719 36.2812 44.7146 36.4186C44.7091 36.5506 44.7148 36.6828 44.7316 36.814C44.7385 36.9458 44.7526 37.0771 44.7737 37.2075L44.8522 37.6104C44.8761 37.7455 44.9292 37.8754 44.9654 38.0102C45.2951 39.0867 45.969 40.1031 46.7517 41.1357C47.1461 41.6545 47.5677 42.1827 47.9873 42.7525C48.1956 43.0353 48.3987 43.333 48.6072 43.6461L48.7536 43.8866L48.8268 44.0069L48.8639 44.0679L48.8824 44.0984L48.9059 44.1412C48.9916 44.305 49.0783 44.4661 49.1636 44.6358C49.2488 44.8055 49.3289 45.0081 49.4058 45.1976C49.4828 45.3871 49.5442 45.5773 49.6033 45.7742C49.7237 46.1781 49.8118 46.5906 49.8669 47.0078C49.9879 47.9039 49.9349 48.8135 49.7109 49.6875C49.4625 50.6215 48.9927 51.4817 48.3404 52.1969C48.1785 52.3772 48.0047 52.5466 47.8201 52.704L47.7532 52.7656L47.7197 52.7964L47.6638 52.8392L47.5301 52.9443L47.265 53.1433C47.0682 53.2721 46.843 53.4124 46.6304 53.5297L46.3062 53.6873L46.1448 53.7663L45.9775 53.8313C45.099 54.1712 44.1684 54.3624 43.2242 54.397C42.3115 54.4249 41.3975 54.3969 40.4876 54.3131C39.5782 54.2458 38.6716 54.1659 37.7656 54.1511C36.8596 54.1363 35.921 54.1497 34.9858 54.2155C34.0431 54.2766 33.1053 54.3941 32.1776 54.5676C31.2444 54.7347 30.3349 55.0102 29.468 55.3884C29.0516 55.581 28.6572 55.8167 28.2912 56.0917C27.9475 56.3498 27.6571 56.671 27.4356 57.038C27.2299 57.3997 27.1061 57.8018 27.0725 58.2166C27.0504 58.6661 27.0937 59.1168 27.201 59.5549L27.304 59.8998C27.319 59.9535 27.3389 60.0058 27.3634 60.056L27.4205 60.1919C27.4609 60.291 27.5079 60.3874 27.5612 60.4803C27.5883 60.5304 27.6108 60.5804 27.6388 60.6277L27.7306 60.7695C27.9779 61.1553 28.2746 61.5078 28.6132 61.8182C28.9632 62.1405 29.3373 62.4359 29.7324 62.7019C30.1441 62.969 30.5689 63.2155 31.0052 63.4405C32.7723 64.3486 34.7297 64.9867 36.7135 65.6234C37.7086 65.9436 38.7147 66.2539 39.7309 66.6462L40.4707 66.9453C40.7141 67.0409 40.9326 67.1249 41.1824 67.2151L42.6625 67.7499C43.1626 67.9336 43.665 68.1285 44.1663 68.3533C44.6797 68.5765 45.177 68.8348 45.6546 69.1266C46.1579 69.4331 46.6245 69.7958 47.045 70.2075L47.3564 70.5499L47.3949 70.5933C47.4142 70.6156 47.4321 70.6389 47.4488 70.6631L47.5095 70.7443L47.6299 70.9049C47.6715 70.9615 47.7096 71.0063 47.7525 71.0723L47.8868 71.286C47.9781 71.426 48.0596 71.572 48.1306 71.723C48.4631 72.3638 48.6128 73.0816 48.5634 73.7983C48.5528 73.8959 48.5468 73.9935 48.5308 74.0892L48.459 74.3832C48.4065 74.5792 48.3345 74.7695 48.2443 74.9513C48.1517 75.1273 48.0472 75.2968 47.9314 75.4586C47.8111 75.6065 47.6823 75.7474 47.5456 75.8805C47.041 76.3321 46.4363 76.6599 45.7796 76.8377L45.3322 76.9409L45.2774 76.9539C45.2431 76.9602 45.2774 76.9539 45.1888 76.9718L45.0916 76.9838L44.8949 77.0099L44.5043 77.0632C44.439 77.071 44.376 77.0811 44.308 77.088L44.0918 77.0999C43.8067 77.1124 43.5125 77.1383 43.2352 77.1368L42.4145 77.1181C41.8748 77.0764 41.3351 77.0348 40.8107 76.9485C39.7696 76.7934 38.74 76.5679 37.729 76.2736C35.786 75.6854 33.8847 74.9671 32.0383 74.1239C31.5861 73.9205 31.1353 73.7175 30.6905 73.5106L30.3562 73.3551L30.1747 73.2657L30.0014 73.1746C29.7768 73.0552 29.5609 72.9329 29.3454 72.8091C28.4899 72.3133 27.6697 71.7904 26.8715 71.2433C26.0732 70.6962 25.2998 70.1258 24.5639 69.517C23.8057 68.9093 23.111 68.2274 22.4906 67.4816C22.1451 67.0664 21.8745 66.5955 21.6907 66.0897C21.5796 65.7617 21.5477 65.413 21.5973 65.0716C21.6612 64.6959 21.8407 64.3498 22.1112 64.0805C22.3266 63.8689 22.5775 63.6959 22.8527 63.5693C22.9757 63.5088 23.0973 63.4614 23.2111 63.4143C23.2714 63.3897 23.3313 63.3755 23.3847 63.3531L23.4738 63.3247L23.5186 63.3099C23.5453 63.3022 23.5724 63.2959 23.5999 63.291C23.7094 63.2696 23.8067 63.2441 23.9276 63.2252C24.0714 63.2111 24.216 63.1988 24.3583 63.1932L24.7398 63.2199C24.8638 63.2367 24.9827 63.2639 25.1043 63.2875C25.5568 63.3998 25.9929 63.5702 26.4016 63.7944C26.7842 64.0095 27.152 64.2497 27.5026 64.5133C28.1638 65.0215 28.7906 65.5725 29.3787 66.1625C30.5321 67.3026 31.5491 68.4623 32.5373 69.5277C33.031 70.0594 33.5161 70.5716 34.008 71.0242C34.2466 71.2451 34.4974 71.4527 34.7593 71.6458C35.0171 71.8239 35.2856 71.9861 35.5633 72.1315C36.5902 72.7019 37.6848 73.1418 38.8212 73.4408C39.3165 73.5706 39.8294 73.619 40.3394 73.584C40.8139 73.5353 41.2532 73.3447 41.5087 72.9823L41.5634 72.9075C41.5771 72.8858 41.5895 72.8633 41.6003 72.8401C41.6776 72.709 41.7229 72.5617 41.7326 72.4098C41.7407 72.2129 41.6957 72.017 41.6021 71.8425C41.5132 71.6724 41.3998 71.516 41.2654 71.3782C41.1406 71.2462 41.0052 71.1245 40.8606 71.0144C40.3804 70.6572 39.8409 70.3863 39.2671 70.2141C38.9125 70.0926 38.5368 70.0455 38.1638 70.0758C38.1004 70.0827 38.0456 70.1002 37.9995 70.11C37.9534 70.1199 37.9149 70.1429 37.8852 70.1584C37.8271 70.1944 37.7992 70.2135 37.7992 70.2135C37.9016 70.1265 38.0267 70.07 38.1603 70.0504C38.5378 69.9967 38.9229 70.0203 39.2918 70.1199C39.8901 70.2597 40.4598 70.5021 40.9751 70.8362C41.1351 70.9428 41.2861 71.0623 41.4264 71.1933C41.5858 71.3373 41.7219 71.5048 41.83 71.6897C41.959 71.9063 42.0273 72.1529 42.0277 72.4038C42.0258 72.5425 42.0009 72.6799 41.9538 72.8103C41.933 72.8791 41.9046 72.9453 41.8693 73.0079C41.8407 73.0687 41.8065 73.1267 41.7671 73.1812C41.6119 73.4169 41.4012 73.6115 41.1529 73.7482C40.908 73.8792 40.6419 73.9673 40.3663 74.0085C39.8147 74.0768 39.2551 74.0552 38.7094 73.9445C38.1311 73.8352 37.5624 73.6791 37.0092 73.4777C36.4183 73.2664 35.8396 73.0226 35.2758 72.7472C34.9695 72.6038 34.6724 72.4414 34.3865 72.261C34.0956 72.0657 33.816 71.8544 33.5491 71.6279C33.0103 71.1743 32.495 70.6744 31.9743 70.1591C30.9334 69.127 29.8903 68.0036 28.7356 66.9341C28.1588 66.3937 27.547 65.8913 26.9043 65.4301C26.5838 65.2057 26.2485 65.0029 25.9007 64.8231C25.565 64.653 25.2089 64.5263 24.8412 64.4461C24.7523 64.4337 24.6626 64.415 24.5755 64.4063L24.3134 64.3964C24.2399 64.406 24.1678 64.4115 24.0953 64.4138C24.0228 64.4161 23.8839 64.4606 23.7798 64.4837L23.7451 64.496L23.6757 64.5205C23.6304 64.5367 23.5816 64.5501 23.5386 64.5686C23.4499 64.6047 23.3613 64.6407 23.2826 64.6832C23.1388 64.7515 23.0077 64.8433 22.8949 64.9549C22.8233 65.0235 22.7768 65.1137 22.7626 65.2115C22.7536 65.3415 22.7734 65.472 22.8207 65.5939C22.9694 65.9541 23.1773 66.2877 23.4359 66.5811C24.0194 67.2449 24.6686 67.8491 25.3736 68.3843C26.0888 68.9467 26.8483 69.4776 27.6331 69.9884C28.4178 70.4991 29.2309 70.9894 30.0578 71.4573C30.2652 71.5737 30.4738 71.6861 30.6785 71.7925L30.8295 71.8684L30.9768 71.9371L31.3089 72.0857C31.7515 72.2859 32.1978 72.4797 32.6459 72.6727C34.4475 73.4637 36.3004 74.1326 38.192 74.6746C39.1437 74.9432 40.1126 75.1469 41.0916 75.2841C41.5791 75.3622 42.071 75.3965 42.566 75.4349L43.302 75.4473C43.5446 75.4474 43.7681 75.4229 44.0085 75.4163L44.1841 75.4071C44.2457 75.401 44.3133 75.3909 44.3771 75.3827L44.7682 75.328L44.9636 75.3014L45.0617 75.2867C45.0101 75.2947 45.0617 75.2867 45.0617 75.2867L45.1032 75.2768L45.4343 75.2016C45.8321 75.094 46.1997 74.8985 46.5095 74.6296C46.7651 74.4042 46.9208 74.0879 46.943 73.7484C46.9596 73.3544 46.8676 72.9627 46.677 72.6152C46.4676 72.2159 46.2007 71.8487 45.8849 71.5251C45.5477 71.2005 45.1747 70.9146 44.7733 70.6726C43.9502 70.1713 43.0092 69.7957 42.0422 69.4338L40.5644 68.8923C40.3186 68.808 40.0497 68.6976 39.8072 68.5993L39.0888 68.3046C38.1469 67.9362 37.1554 67.6233 36.1612 67.3004C34.1715 66.6497 32.1532 65.9891 30.237 64.9951C29.7555 64.7417 29.2874 64.4638 28.8347 64.1623C28.3713 63.847 27.9341 63.495 27.5276 63.1099C27.1024 62.7047 26.731 62.2474 26.4224 61.7493L26.3035 61.5575C26.2656 61.4901 26.2327 61.4215 26.1979 61.3537C26.1221 61.2147 26.0551 61.0712 25.9974 60.924L25.9065 60.6905C25.8768 60.6182 25.8511 60.5444 25.8298 60.4693L25.7104 60.0433C25.5686 59.4244 25.5192 58.7887 25.5638 58.1568C25.6275 57.4813 25.8393 56.8288 26.1845 56.2449C26.5149 55.6952 26.9497 55.2147 27.465 54.8297C27.9289 54.4858 28.4298 54.1938 28.9587 53.9588C29.9354 53.5473 30.9587 53.2525 32.007 53.0805C32.9906 52.9085 33.9853 52.8032 34.9842 52.7652C35.9626 52.7203 36.9243 52.7285 37.8717 52.7695C38.8191 52.8106 39.7502 52.9125 40.6462 53.0009C41.5121 53.1004 42.3829 53.1469 43.2539 53.1402C44.0749 53.1291 44.8879 52.9868 45.6617 52.7187L45.8038 52.6693L45.9404 52.609L46.2124 52.4879C46.3016 52.4459 46.3776 52.3935 46.4608 52.3511C46.544 52.3086 46.6218 52.2688 46.7115 52.2075L46.9811 52.0176L47.1157 51.9233C47.1157 51.9233 47.1606 51.8904 47.1258 51.9162L47.1542 51.8912L47.2105 51.8426C47.3642 51.7193 47.5094 51.586 47.645 51.4435C48.1907 50.8804 48.5916 50.1952 48.8143 49.445C49.2525 47.9493 49.0037 46.3387 48.4603 45.0621C48.3851 44.8943 48.3012 44.7251 48.2241 44.5582L47.9753 44.1089C47.795 43.807 47.6111 43.5113 47.417 43.2273C47.0302 42.6552 46.6306 42.1074 46.251 41.5634C45.874 41.0331 45.528 40.4818 45.2148 39.9124C44.9089 39.3666 44.6735 38.7851 44.5143 38.1816C44.48 38.0325 44.4316 37.889 44.4114 37.7386L44.3427 37.2892C44.3189 37.1451 44.3252 36.9887 44.3146 36.8417C44.303 36.6974 44.3016 36.5527 44.3106 36.4084C44.3214 36.2701 44.3313 36.1346 44.3407 36.0004L44.3451 35.9521L44.3466 35.9254C44.3466 35.9254 44.3563 35.897 44.35 35.8888L44.3674 35.7846C44.376 35.7161 44.3881 35.6482 44.4036 35.581C44.4555 35.3176 44.5303 35.0594 44.6272 34.8091C44.9997 33.8344 45.6271 33.0998 46.2887 32.697C46.5538 32.5219 46.8529 32.4036 47.1673 32.3495C47.4817 32.2954 47.8044 32.3066 48.115 32.3826C48.4823 32.4854 48.8221 32.669 49.1089 32.9198C49.2092 33.0011 49.2745 33.0733 49.323 33.1186L49.402 33.191Z" fill="black"/>
<path d="M20.2629 67.4891L19.9753 67.6427L19.7603 67.7667C19.6047 67.8644 19.4532 67.9634 19.3099 68.0653C19.0236 68.2732 18.7575 68.5069 18.5149 68.7636C18.0309 69.2796 17.6558 69.8865 17.4111 70.549C17.1564 71.2519 17.0114 71.9899 16.9809 72.7375C16.9468 73.5285 16.9928 74.3214 17.1184 75.1042C17.2465 75.9132 17.4312 76.7128 17.6712 77.497C17.7903 77.8928 17.9217 78.2882 18.0655 78.6788C18.1374 78.8741 18.2107 79.0699 18.2876 79.2639L18.4046 79.5547L18.5216 79.8319C18.7022 80.2487 18.8591 80.5698 19.0559 80.9438C19.2527 81.3179 19.4578 81.654 19.6826 81.9954C20.133 82.6817 20.6424 83.3284 21.2051 83.928C21.773 84.5332 22.3884 85.0927 23.0455 85.6013C23.7089 86.1149 24.4075 86.5821 25.136 86.9993C25.8686 87.4223 26.6258 87.8015 27.4035 88.135C27.7943 88.3037 28.1915 88.4581 28.5902 88.6084L29.1992 88.8173C29.4054 88.888 29.5989 88.9423 29.8001 89.0053C30.6101 89.2447 31.4365 89.4247 32.2724 89.5437C34.809 89.9063 37.3928 89.5974 39.7615 88.6483L39.7322 88.6624C39.9874 88.528 40.2537 88.3701 40.5094 88.2117C40.7652 88.0533 41.0197 87.8854 41.2696 87.7174C41.7695 87.3724 42.2546 87.0067 42.7249 86.6204C43.6674 85.8485 44.5298 84.9855 45.2995 84.0438C46.0734 83.1008 46.7166 82.0589 47.2122 80.9458C47.7064 79.824 48.0086 78.6273 48.1063 77.4047C48.0648 78.6401 47.816 79.8588 47.3701 81.0105C46.9187 82.1652 46.3142 83.2543 45.5725 84.2492C44.8303 85.2473 43.99 86.1695 43.0639 87.0024C42.601 87.4205 42.1212 87.8182 41.6245 88.1955C41.3749 88.3847 41.1218 88.5667 40.8636 88.7454C40.6054 88.9242 40.3477 89.0925 40.0646 89.2596L40.0431 89.2689C38.4137 90.0181 36.6626 90.4776 34.8694 90.6263C33.9674 90.6988 33.0602 90.6938 32.158 90.6114C31.2565 90.5304 30.3619 90.3826 29.4818 90.1691C29.2618 90.1118 29.0309 90.0598 28.8201 89.9981L28.1782 89.8096C27.7521 89.6725 27.327 89.5282 26.9042 89.3726C26.0584 89.0561 25.2319 88.6905 24.429 88.2775C23.6195 87.8611 22.8399 87.3894 22.096 86.8657C21.3446 86.3369 20.6366 85.7497 19.9788 85.1096C19.316 84.4649 18.7106 83.7646 18.1694 83.0167C17.8965 82.6422 17.6451 82.2539 17.4056 81.8577C17.166 81.4614 16.9309 81.0168 16.7533 80.6448L16.6091 80.3266L16.4676 80.0183C16.3757 79.8116 16.2852 79.6039 16.196 79.3951C16.0218 78.9775 15.8568 78.5554 15.705 78.1259C15.3954 77.2604 15.1463 76.3753 14.9594 75.4766C14.7644 74.5514 14.6635 73.6097 14.6583 72.6658C14.6538 71.6775 14.8009 70.6953 15.0943 69.7528C15.4058 68.7703 15.9096 67.8594 16.577 67.072C16.9114 66.6809 17.2819 66.3217 17.6837 65.9989C17.8825 65.8376 18.0958 65.6872 18.2972 65.5449L18.6359 65.3273L18.9172 65.1611L20.2629 67.4891Z" fill="black"/>
<path d="M47.7455 79.1595L47.8088 79.0906C47.8304 79.0678 47.8565 79.0405 47.8864 79.007C47.9162 78.9734 47.9877 78.9073 48.05 78.8502L48.1545 78.7546L48.2644 78.67C48.3461 78.6043 48.432 78.544 48.5217 78.4895C48.7375 78.3519 48.9672 78.2369 49.2072 78.1462C50.2623 77.7395 51.8664 77.6992 53.4479 78.5075C53.8652 78.718 54.2506 78.986 54.5927 79.3033C54.779 79.4747 54.9484 79.6633 55.0986 79.8664C55.2618 80.083 55.399 80.3176 55.5074 80.5654L55.5713 80.7172C55.592 80.7681 55.6128 80.8145 55.6342 80.8898C55.6825 81.0175 55.724 81.1477 55.7584 81.2797C55.9937 82.0961 55.9256 82.9673 55.5666 83.7343C55.4455 83.9902 55.2939 84.2307 55.1149 84.4507C54.9424 84.668 54.7491 84.8682 54.5375 85.0484C54.1245 85.403 53.6667 85.7028 53.1755 85.9403C52.6935 86.175 52.1902 86.3644 51.6721 86.5059C51.4131 86.5757 51.1529 86.6404 50.8872 86.6897C50.7521 86.7144 50.627 86.7364 50.4832 86.755L50.1013 86.8007C49.0323 86.9097 48.0181 86.8986 47.0255 86.9538C46.033 87.009 45.0765 87.1325 44.2278 87.4666C44.1204 87.5042 44.0156 87.5484 43.9138 87.599C43.8164 87.6471 43.6994 87.6946 43.6184 87.7438C43.5266 87.7965 43.4382 87.855 43.3539 87.9188C43.2689 87.9844 43.1874 88.0542 43.1097 88.128C42.8012 88.4263 42.5321 88.7623 42.3089 89.1279C42.0916 89.4755 41.9135 89.8458 41.7775 90.2322C41.647 90.5855 41.5857 90.9606 41.5968 91.3376C41.6013 91.5087 41.6423 91.6772 41.7172 91.8319C41.7849 91.9765 41.8926 92.0993 42.0276 92.186C42.298 92.3447 42.61 92.4186 42.9225 92.3978C43.07 92.3922 43.217 92.3781 43.3628 92.3556C43.4335 92.3451 43.5066 92.3369 43.5691 92.3236C43.6316 92.3103 43.7074 92.2941 43.7668 92.2722C43.9972 92.2069 44.2091 92.0899 44.3862 91.9304C44.5281 91.7998 44.6212 91.6254 44.6506 91.4352C44.6697 91.2923 44.6489 91.1468 44.5905 91.0144C44.5417 90.9031 44.4779 90.7988 44.4006 90.7046C44.481 90.7952 44.5491 90.8957 44.6033 91.0036C44.671 91.1381 44.7003 91.2881 44.688 91.4374C44.6675 91.6418 44.5783 91.833 44.4347 91.9802C44.2561 92.1611 44.0372 92.298 43.7954 92.3801C43.6612 92.4278 43.5231 92.4642 43.3826 92.4892C43.2318 92.5195 43.0795 92.5419 42.9262 92.5561C42.5754 92.5954 42.2202 92.5263 41.909 92.3583C41.7379 92.2497 41.5951 92.1024 41.4925 91.9285C41.39 91.7547 41.3306 91.5593 41.3194 91.3587C41.2833 90.9433 41.3277 90.5254 41.4502 90.1275C41.5719 89.7074 41.7406 89.3023 41.953 88.9197C42.1752 88.5098 42.4491 88.1299 42.7681 87.7889C42.8507 87.6994 42.9419 87.616 43.0345 87.533C43.1319 87.4511 43.2344 87.3752 43.3413 87.306C43.4562 87.2291 43.5586 87.1842 43.6716 87.1172C43.7802 87.057 43.8921 87.0027 44.0067 86.9543C44.9219 86.5373 45.9453 86.3613 46.9578 86.2435C47.9704 86.1257 49.0049 86.0819 49.9647 85.9309L50.3399 85.8648C50.449 85.8448 50.5732 85.8164 50.6892 85.7898C50.9234 85.7342 51.155 85.6641 51.3834 85.59C51.8339 85.4398 52.2692 85.2489 52.6839 85.0197C53.4931 84.5694 54.1828 83.9467 54.469 83.2415C54.5406 83.0709 54.5888 82.8914 54.6124 82.7078C54.637 82.5292 54.6386 82.3481 54.6171 82.1688C54.6068 82.0783 54.5907 81.9886 54.5689 81.9001C54.5507 81.81 54.526 81.7213 54.4951 81.6347C54.4694 81.5519 54.4393 81.4704 54.4048 81.3908C54.3866 81.3437 54.3657 81.2977 54.3422 81.253L54.2709 81.1047C54.1143 80.8148 53.9015 80.5581 53.6449 80.3494C53.3888 80.1376 53.1041 79.9627 52.7991 79.8297C52.2575 79.5879 51.6717 79.4605 51.0792 79.4558C50.6542 79.4478 50.2329 79.5287 49.8426 79.693C49.7128 79.7498 49.5898 79.8206 49.4757 79.9039C49.4293 79.9356 49.386 79.9712 49.346 80.0105C49.3282 80.027 49.3094 80.0417 49.292 80.0569L49.2603 80.0913C49.2378 80.1168 49.226 80.1203 49.1975 80.1544C49.169 80.1884 49.1447 80.2193 49.1245 80.2426L49.0648 80.3142C48.9919 80.4021 48.9021 80.4748 48.8006 80.5282C48.6991 80.5815 48.5879 80.6144 48.4733 80.625C48.3587 80.6356 48.2429 80.6237 48.1327 80.59C48.0224 80.5563 47.9198 80.5014 47.8307 80.4285C47.7415 80.3556 47.6677 80.2661 47.6132 80.1651C47.5588 80.0641 47.5249 79.9536 47.5134 79.8398C47.502 79.7261 47.5132 79.6114 47.5465 79.5023C47.5798 79.3932 47.6345 79.2917 47.7074 79.2038L47.7455 79.1595Z" fill="black"/>
<path d="M16.2628 80.6155L15.7565 80.454C15.2864 80.3218 14.8017 80.2489 14.314 80.237C14.1603 80.2402 13.9956 80.2487 13.8282 80.2607L13.5735 80.3002L13.443 80.3204L13.3138 80.3546C12.9417 80.4415 12.5894 80.5955 12.2743 80.8089C11.9184 81.0503 11.6296 81.3765 11.4341 81.7578C11.2385 82.139 11.1425 82.5633 11.1546 82.9921C11.1499 83.9313 11.6237 84.9394 12.3223 85.8525C13.1137 86.8127 14.0427 87.6529 15.0794 88.346C15.3584 88.5248 15.6337 88.7098 15.9177 88.8873C16.2018 89.0648 16.4954 89.2364 16.7955 89.4028L17.2497 89.6447L17.4775 89.7681L17.5925 89.8287L17.6226 89.839L17.5816 89.8249L17.5966 89.8301L17.6608 89.8521L18.6535 90.2817L19.6539 90.7154L20.6518 91.1075L21.651 91.5046L22.6732 91.8703L23.6949 92.2419L24.7269 92.5793L25.7543 92.9166L26.7845 93.2231C27.1274 93.3226 27.4665 93.4284 27.808 93.5228L28.8289 93.799C29.1677 93.888 29.5014 93.9874 29.8375 94.0664L30.8385 94.3116C31.4983 94.4835 32.1561 94.6125 32.7974 94.7585C33.4386 94.9044 34.0701 95.0168 34.6841 95.1444C35.9131 95.3832 37.0817 95.5801 38.1647 95.7462C39.2478 95.9124 40.2466 96.0481 41.1335 96.1499C41.5714 96.208 41.9921 96.2405 42.3781 96.2854C42.7641 96.3302 43.1137 96.3655 43.4373 96.3919C43.7609 96.4184 44.0421 96.4484 44.2933 96.4681L44.9287 96.5154L45.4575 96.5578L44.9309 96.6203L44.2966 96.6897C44.0462 96.7125 43.7583 96.7331 43.4362 96.7555C43.1142 96.7779 42.7556 96.7999 42.3652 96.817C41.9747 96.8341 41.5528 96.8494 41.1009 96.85C40.1984 96.8651 39.1779 96.8548 38.065 96.8023C36.9522 96.7498 35.747 96.6551 34.4773 96.508C33.8434 96.4295 33.1894 96.3562 32.5284 96.2458C31.8673 96.1353 31.1852 96.0372 30.5001 95.8989L29.4638 95.6945C29.1162 95.6266 28.7701 95.5366 28.4185 95.4583L27.361 95.2133C27.0085 95.1241 26.6556 95.0227 26.3005 94.9281L25.2345 94.6365L24.172 94.3038L23.1073 93.9642L22.0518 93.5886L20.9996 93.2036L19.9549 92.7788L18.9171 92.3518L17.9259 91.8956L16.9443 91.4426L16.8825 91.4139L16.8675 91.4087C16.8743 91.4111 16.7538 91.3531 16.7974 91.3726L16.766 91.3619L16.6451 91.2917L16.4042 91.1577L15.926 90.8789C15.611 90.6893 15.2993 90.4812 15.0007 90.2882C14.7022 90.0952 14.4093 89.8634 14.1164 89.6542C12.9856 88.8121 11.9987 87.7948 11.1939 86.6418C10.822 86.0817 10.527 85.4752 10.3168 84.8385C10.1106 84.2236 10.0347 83.5739 10.0938 82.9302C10.1489 82.3254 10.3598 81.7456 10.7064 81.2467C11.0191 80.8088 11.4348 80.4534 11.9178 80.211C12.3235 80.0027 12.7673 79.8763 13.2236 79.8389L13.381 79.8249L13.5333 79.8258L13.8233 79.8256C14.0097 79.8427 14.187 79.8598 14.3529 79.8834C14.8579 79.974 15.3476 80.1363 15.8067 80.3655L16.2628 80.6155Z" fill="black"/>
<path d="M16.777 66.8537C17.8683 65.8433 18.8376 64.9616 18.8804 63.3907C20.5797 64.3722 19.4368 65.6262 19.929 66.2692C20.2944 66.7479 21.6168 66.9991 21.7912 68.8711C21.2065 68.2175 19.7575 67.6812 18.9905 68.2623" fill="black"/>
</g>
<g clip-path="url(#clip1_1_31)">
<path d="M112.243 15.0575L112.169 14.9929C112.098 14.9272 112.023 14.8656 111.944 14.8085C111.649 14.5814 111.307 14.4232 110.943 14.3458C110.644 14.2926 110.338 14.3012 110.044 14.3711C109.75 14.4409 109.474 14.5704 109.233 14.7515C108.544 15.2642 108.036 15.9792 107.78 16.796C107.701 17.0284 107.643 17.2672 107.607 17.5098C107.594 17.572 107.589 17.6353 107.582 17.6976L107.571 17.792L107.569 17.8788C107.564 18.013 107.56 18.1477 107.556 18.2851C107.55 18.4171 107.556 18.5494 107.573 18.6806C107.58 18.8123 107.594 18.9437 107.615 19.074L107.693 19.477C107.717 19.612 107.77 19.742 107.807 19.8767C108.136 20.9532 108.81 21.9696 109.593 23.0022C109.987 23.5211 110.409 24.0492 110.829 24.619C111.037 24.9018 111.24 25.1995 111.448 25.5127L111.595 25.7532L111.668 25.8734L111.705 25.9345L111.724 25.965L111.747 26.0078C111.833 26.1716 111.919 26.3327 112.005 26.5023C112.09 26.672 112.17 26.8747 112.247 27.0641C112.324 27.2536 112.385 27.4438 112.444 27.6408C112.565 28.0447 112.653 28.4571 112.708 28.8744C112.829 29.7704 112.776 30.68 112.552 31.5541C112.304 32.488 111.834 33.3483 111.182 34.0635C111.02 34.2438 110.846 34.4132 110.661 34.5706L110.594 34.6322L110.561 34.663L110.505 34.7057L110.371 34.8109L110.106 35.0099C109.909 35.1387 109.684 35.2789 109.472 35.3963L109.147 35.5539L108.986 35.6329L108.819 35.6978C107.94 36.0378 107.01 36.229 106.065 36.2636C105.153 36.2915 104.239 36.2634 103.329 36.1796C102.419 36.1124 101.513 36.0325 100.607 36.0177C99.7008 36.0029 98.7622 36.0162 97.827 36.082C96.8843 36.1431 95.9465 36.2607 95.0187 36.4341C94.0855 36.6012 93.1761 36.8767 92.3091 37.2549C91.8928 37.4475 91.4984 37.6832 91.1324 37.9582C90.7887 38.2164 90.4983 38.5376 90.2767 38.9045C90.0711 39.2662 89.9473 39.6684 89.9137 40.0832C89.8916 40.5327 89.9348 40.9834 90.0422 41.4214L90.1452 41.7663C90.1602 41.8201 90.1801 41.8724 90.2045 41.9226L90.2617 42.0585C90.3021 42.1576 90.3491 42.2539 90.4024 42.3468C90.4295 42.3969 90.452 42.4469 90.48 42.4943L90.5718 42.636C90.8191 43.0218 91.1157 43.3744 91.4544 43.6847C91.8043 44.007 92.1785 44.3025 92.5736 44.5684C92.9853 44.8356 93.4101 45.0821 93.8464 45.307C95.6135 46.2151 97.5709 46.8533 99.5547 47.4899C100.55 47.8101 101.556 48.1205 102.572 48.5128L103.312 48.8119C103.555 48.9074 103.774 48.9914 104.024 49.0816L105.504 49.6165C106.004 49.8001 106.506 49.9951 107.007 50.2199C107.521 50.443 108.018 50.7014 108.496 50.9931C108.999 51.2997 109.466 51.6624 109.886 52.074L110.198 52.4164L110.236 52.4598C110.255 52.4821 110.273 52.5054 110.29 52.5297L110.351 52.6109L110.471 52.7715C110.513 52.828 110.551 52.8728 110.594 52.9389L110.728 53.1526C110.819 53.2925 110.901 53.4385 110.972 53.5896C111.304 54.2304 111.454 54.9481 111.405 55.6649C111.394 55.7624 111.388 55.86 111.372 55.9557L111.3 56.2497C111.248 56.4457 111.176 56.636 111.085 56.8178C110.993 56.9938 110.888 57.1633 110.773 57.3251C110.652 57.4731 110.523 57.6139 110.387 57.747C109.882 58.1987 109.277 58.5264 108.621 58.7043L108.173 58.8075L108.119 58.8204C108.084 58.8268 108.119 58.8204 108.03 58.8384L107.933 58.8503L107.736 58.8765L107.345 58.9297C107.28 58.9376 107.217 58.9477 107.149 58.9546L106.933 58.9665C106.648 58.9789 106.354 59.0048 106.076 59.0034L105.256 58.9846C104.716 58.943 104.176 58.9013 103.652 58.8151C102.611 58.6599 101.581 58.4344 100.57 58.1401C98.6272 57.5519 96.7259 56.8337 94.8795 55.9904C94.4273 55.787 93.9765 55.5841 93.5317 55.3771L93.1973 55.2217L93.0159 55.1322L92.8426 55.0411C92.618 54.9218 92.4021 54.7994 92.1866 54.6757C91.3311 54.1799 90.5109 53.6569 89.7126 53.1098C88.9144 52.5627 88.141 51.9924 87.4051 51.3836C86.6468 50.7759 85.9522 50.0939 85.3318 49.3481C84.9863 48.933 84.7157 48.4621 84.5318 47.9562C84.4208 47.6283 84.3888 47.2796 84.4385 46.9381C84.5024 46.5625 84.6819 46.2164 84.9524 45.9471C85.1678 45.7354 85.4187 45.5625 85.6939 45.4358C85.8169 45.3753 85.9385 45.3279 86.0523 45.2809C86.1126 45.2563 86.1724 45.2421 86.2259 45.2196L86.315 45.1913L86.3598 45.1764C86.3865 45.1687 86.4136 45.1624 86.4411 45.1575C86.5506 45.1362 86.6479 45.1107 86.7688 45.0917C86.9126 45.0776 87.0572 45.0653 87.1995 45.0597L87.581 45.0864C87.705 45.1033 87.8238 45.1304 87.9455 45.154C88.398 45.2664 88.8341 45.4368 89.2428 45.6609C89.6254 45.8761 89.9932 46.1163 90.3438 46.3798C91.005 46.888 91.6317 47.439 92.2199 48.0291C93.3733 49.1692 94.3902 50.3289 95.3785 51.3942C95.8722 51.926 96.3573 52.4382 96.8492 52.8908C97.0877 53.1117 97.3386 53.3192 97.6005 53.5124C97.8582 53.6905 98.1268 53.8527 98.4045 53.9981C99.4314 54.5685 100.526 55.0083 101.662 55.3073C102.158 55.4371 102.671 55.4855 103.181 55.4505C103.655 55.4019 104.094 55.2112 104.35 54.8489L104.405 54.774C104.418 54.7524 104.431 54.7298 104.441 54.7066C104.519 54.5756 104.564 54.4282 104.574 54.2763C104.582 54.0794 104.537 53.8836 104.443 53.7091C104.354 53.539 104.241 53.3825 104.107 53.2447C103.982 53.1128 103.846 52.9911 103.702 52.8809C103.222 52.5237 102.682 52.2528 102.108 52.0806C101.754 51.9591 101.378 51.912 101.005 51.9423C100.942 51.9493 100.887 51.9667 100.841 51.9766C100.795 51.9864 100.756 52.0095 100.726 52.025C100.668 52.0609 100.64 52.08 100.64 52.08C100.743 51.9931 100.868 51.9366 101.002 51.917C101.379 51.8632 101.764 51.8868 102.133 51.9864C102.731 52.1262 103.301 52.3686 103.816 52.7027C103.976 52.8094 104.127 52.9288 104.268 53.0599C104.427 53.2039 104.563 53.3713 104.671 53.5562C104.8 53.7728 104.868 54.0194 104.869 54.2703C104.867 54.4091 104.842 54.5465 104.795 54.6769C104.774 54.7456 104.746 54.8118 104.71 54.8744C104.682 54.9352 104.648 54.9933 104.608 55.0477C104.453 55.2835 104.242 55.4781 103.994 55.6148C103.749 55.7458 103.483 55.8338 103.207 55.875C102.656 55.9433 102.096 55.9218 101.551 55.8111C100.972 55.7018 100.404 55.5456 99.8504 55.3442C99.2595 55.133 98.6808 54.8891 98.117 54.6137C97.8106 54.4704 97.5136 54.308 97.2277 54.1275C96.9368 53.9323 96.6572 53.7209 96.3903 53.4945C95.8515 53.0409 95.3362 52.541 94.8155 52.0256C93.7746 50.9936 92.7315 49.8702 91.5768 48.8006C91 48.2603 90.3882 47.7579 89.7455 47.2966C89.425 47.0722 89.0897 46.8694 88.7419 46.6897C88.4062 46.5195 88.0501 46.3928 87.6824 46.3126C87.5935 46.3003 87.5038 46.2816 87.4167 46.2729L87.1546 46.263C87.0811 46.2725 87.009 46.278 86.9365 46.2803C86.864 46.2826 86.7251 46.3271 86.621 46.3503L86.5863 46.3625L86.5168 46.387C86.4716 46.4032 86.4227 46.4167 86.3798 46.4352C86.2911 46.4712 86.2024 46.5072 86.1238 46.5497C85.98 46.618 85.8489 46.7099 85.736 46.8214C85.6645 46.89 85.618 46.9802 85.6038 47.0781C85.5948 47.208 85.6146 47.3385 85.6618 47.4604C85.8106 47.8207 86.0185 48.1543 86.2771 48.4476C86.8606 49.1114 87.5098 49.7156 88.2148 50.2509C88.93 50.8133 89.6895 51.3441 90.4742 51.8549C91.259 52.3657 92.0721 52.856 92.899 53.3238C93.1063 53.4403 93.315 53.5526 93.5197 53.659L93.6706 53.735L93.818 53.8037L94.1501 53.9523C94.5927 54.1524 95.039 54.3463 95.4871 54.5392C97.2887 55.3303 99.1416 55.9991 101.033 56.5412C101.985 56.8098 102.954 57.0134 103.933 57.1507C104.42 57.2288 104.912 57.2631 105.407 57.3015L106.143 57.3138C106.386 57.314 106.609 57.2895 106.85 57.2828L107.025 57.2736C107.087 57.2675 107.154 57.2575 107.218 57.2492L107.609 57.1946L107.805 57.168L107.903 57.1533C107.851 57.1613 107.903 57.1533 107.903 57.1533L107.944 57.1434L108.275 57.0682C108.673 56.9606 109.041 56.7651 109.351 56.4962C109.606 56.2708 109.762 55.9544 109.784 55.615C109.801 55.221 109.709 54.8292 109.518 54.4818C109.309 54.0825 109.042 53.7152 108.726 53.3916C108.389 53.0671 108.016 52.7811 107.614 52.5392C106.791 52.0379 105.85 51.6623 104.883 51.3004L103.406 50.7588C103.16 50.6745 102.891 50.5642 102.648 50.4659L101.93 50.1711C100.988 49.8027 99.9966 49.4899 99.0024 49.167C97.0127 48.5162 94.9944 47.8557 93.0782 46.8617C92.5966 46.6083 92.1286 46.3303 91.6759 46.0288C91.2124 45.7135 90.7753 45.3616 90.3688 44.9765C89.9436 44.5713 89.5722 44.114 89.2636 43.6158L89.1447 43.4241C89.1068 43.3567 89.0739 43.288 89.0391 43.2202C88.9633 43.0812 88.8963 42.9377 88.8386 42.7905L88.7477 42.557C88.7179 42.4848 88.6923 42.4109 88.671 42.3359L88.5515 41.9098C88.4098 41.2909 88.3604 40.6553 88.405 40.0233C88.4687 39.3479 88.6805 38.6954 89.0257 38.1115C89.3561 37.5618 89.7909 37.0812 90.3062 36.6963C90.7701 36.3524 91.271 36.0603 91.7999 35.8254C92.7766 35.4139 93.7998 35.1191 94.8482 34.947C95.8318 34.7751 96.8265 34.6698 97.8254 34.6318C98.8038 34.5868 99.7655 34.595 100.713 34.6361C101.66 34.6771 102.591 34.779 103.487 34.8674C104.353 34.9669 105.224 35.0135 106.095 35.0068C106.916 34.9956 107.729 34.8533 108.503 34.5853L108.645 34.5359L108.782 34.4755L109.054 34.3544C109.143 34.3125 109.219 34.26 109.302 34.2176C109.385 34.1752 109.463 34.1354 109.553 34.0741L109.822 33.8841L109.957 33.7899C109.957 33.7899 110.002 33.7569 109.967 33.7828L109.995 33.7578L110.052 33.7091C110.205 33.5859 110.351 33.4525 110.486 33.31C111.032 32.747 111.433 32.0617 111.655 31.3115C112.094 29.8158 111.845 28.2053 111.302 26.9286C111.226 26.7609 111.142 26.5916 111.065 26.4248L110.817 25.9755C110.636 25.6736 110.452 25.3779 110.258 25.0939C109.871 24.5218 109.472 23.974 109.092 23.43C108.715 22.8997 108.369 22.3484 108.056 21.7789C107.75 21.2332 107.515 20.6516 107.356 20.0482C107.321 19.899 107.273 19.7555 107.253 19.6052L107.184 19.1558C107.16 19.0117 107.166 18.8553 107.156 18.7082C107.144 18.564 107.143 18.4192 107.152 18.2749C107.163 18.1367 107.172 18.0011 107.182 17.867L107.186 17.8186L107.188 17.792C107.188 17.792 107.197 17.7636 107.191 17.7554L107.209 17.6511C107.217 17.5827 107.229 17.5148 107.245 17.4476C107.297 17.1842 107.371 16.9259 107.468 16.6756C107.841 15.701 108.468 14.9663 109.13 14.5635C109.395 14.3885 109.694 14.2701 110.008 14.216C110.323 14.1619 110.646 14.1732 110.956 14.2492C111.324 14.3519 111.663 14.5356 111.95 14.7864C112.05 14.8676 112.116 14.9398 112.164 14.9852L112.243 15.0575Z" fill="black"/>
<path d="M83.1041 49.3557L82.8164 49.5092L82.6014 49.6333C82.4459 49.7309 82.2944 49.83 82.1511 49.9318C81.8648 50.1397 81.5987 50.3735 81.3561 50.6301C80.8721 51.1462 80.4969 51.753 80.2523 52.4155C79.9976 53.1184 79.8525 53.8564 79.8221 54.6041C79.7879 55.395 79.834 56.1879 79.9596 56.9707C80.0877 57.7798 80.2724 58.5793 80.5124 59.3636C80.6315 59.7593 80.7629 60.1547 80.9067 60.5453C80.9786 60.7406 81.0519 60.9364 81.1288 61.1304L81.2457 61.4212L81.3628 61.6984C81.5434 62.1152 81.7003 62.4364 81.8971 62.8104C82.0938 63.1844 82.299 63.5206 82.5238 63.8619C82.9742 64.5483 83.4836 65.1949 84.0463 65.7946C84.6142 66.3998 85.2296 66.9593 85.8867 67.4678C86.5501 67.9814 87.2486 68.4486 87.9772 68.8659C88.7098 69.2888 89.467 69.668 90.2447 70.0015C90.6355 70.1703 91.0327 70.3247 91.4314 70.475L92.0404 70.6839C92.2465 70.7546 92.4401 70.8089 92.6413 70.8719C93.4513 71.1113 94.2776 71.2912 95.1136 71.4103C97.6502 71.7729 100.234 71.4639 102.603 70.5148L102.573 70.529C102.829 70.3945 103.095 70.2367 103.351 70.0782C103.606 69.9198 103.861 69.7519 104.111 69.5839C104.611 69.2389 105.096 68.8733 105.566 68.4869C106.509 67.7151 107.371 66.852 108.141 65.9104C108.915 64.9673 109.558 63.9255 110.053 62.8123C110.548 61.6905 110.85 60.4939 110.947 59.2713C110.906 60.5067 110.657 61.7253 110.211 62.877C109.76 64.0317 109.155 65.1208 108.414 66.1157C107.672 67.1138 106.831 68.036 105.905 68.869C105.442 69.2871 104.962 69.6847 104.466 70.062C104.216 70.2513 103.963 70.4332 103.705 70.612C103.447 70.7907 103.189 70.959 102.906 71.1262L102.884 71.1354C101.255 71.8847 99.5038 72.3441 97.7106 72.4928C96.8085 72.5654 95.9014 72.5604 94.9992 72.4779C94.0977 72.3969 93.2031 72.2491 92.323 72.0357C92.103 71.9784 91.8721 71.9264 91.6613 71.8646L91.0194 71.6761C90.5933 71.5391 90.1682 71.3948 89.7454 71.2392C88.8996 70.9227 88.0731 70.557 87.2702 70.1441C86.4607 69.7277 85.6811 69.2559 84.9372 68.7323C84.1858 68.2035 83.4778 67.6162 82.82 66.9762C82.1572 66.3314 81.5518 65.6311 81.0106 64.8832C80.7377 64.5087 80.4863 64.1205 80.2467 63.7242C80.0072 63.328 79.7721 62.8834 79.5945 62.5114L79.4503 62.1931L79.3088 61.8849C79.2169 61.6782 79.1264 61.4704 79.0372 61.2617C78.863 60.844 78.698 60.422 78.5462 59.9924C78.2366 59.127 77.9875 58.2418 77.8006 57.3432C77.6056 56.418 77.5047 55.4763 77.4995 54.5323C77.495 53.5441 77.642 52.5619 77.9355 51.6194C78.247 50.6368 78.7508 49.7259 79.4181 48.9386C79.7525 48.5475 80.123 48.1882 80.5249 47.8655C80.7237 47.7041 80.937 47.5538 81.1384 47.4115L81.4771 47.1939L81.7584 47.0276L83.1041 49.3557Z" fill="black"/>
<path d="M110.587 61.0261L110.65 60.9572C110.672 60.9344 110.698 60.9071 110.728 60.8735C110.757 60.84 110.829 60.7739 110.891 60.7167L110.996 60.6212L111.106 60.5366C111.187 60.4708 111.273 60.4105 111.363 60.356C111.579 60.2184 111.808 60.1034 112.048 60.0128C113.104 59.606 114.708 59.5658 116.289 60.374C116.706 60.5846 117.092 60.8525 117.434 61.1699C117.62 61.3413 117.79 61.5298 117.94 61.733C118.103 61.9495 118.24 62.1841 118.349 62.432L118.413 62.5837C118.433 62.6346 118.454 62.681 118.475 62.7563C118.524 62.8841 118.565 63.0142 118.6 63.1462C118.835 63.9627 118.767 64.8339 118.408 65.6008C118.287 65.8568 118.135 66.0973 117.956 66.3172C117.784 66.5346 117.59 66.7348 117.379 66.915C116.966 67.2695 116.508 67.5693 116.017 67.8069C115.535 68.0416 115.031 68.2309 114.513 68.3725C114.254 68.4422 113.994 68.507 113.728 68.5563C113.593 68.5809 113.468 68.6029 113.324 68.6216L112.943 68.6673C111.873 68.7763 110.859 68.7652 109.867 68.8204C108.874 68.8756 107.918 68.999 107.069 69.3331C106.962 69.3707 106.857 69.415 106.755 69.4655C106.658 69.5137 106.541 69.5611 106.46 69.6103C106.368 69.6631 106.279 69.7216 106.195 69.7854C106.11 69.8509 106.029 69.9207 105.951 69.9946C105.642 70.2929 105.373 70.6288 105.15 70.9944C104.933 71.342 104.755 71.7123 104.619 72.0988C104.488 72.4521 104.427 72.8272 104.438 73.2041C104.442 73.3752 104.484 73.5437 104.558 73.6984C104.626 73.843 104.734 73.9658 104.869 74.0526C105.139 74.2113 105.451 74.2851 105.764 74.2644C105.911 74.2587 106.058 74.2446 106.204 74.2221C106.275 74.2116 106.348 74.2034 106.41 74.1902C106.473 74.1769 106.549 74.1606 106.608 74.1387C106.838 74.0734 107.05 73.9565 107.227 73.7969C107.369 73.6663 107.462 73.4919 107.492 73.3017C107.511 73.1589 107.49 73.0133 107.432 72.8809C107.383 72.7696 107.319 72.6654 107.242 72.5712C107.322 72.6617 107.39 72.7623 107.444 72.8702C107.512 73.0046 107.541 73.1547 107.529 73.304C107.509 73.5083 107.419 73.6995 107.276 73.8468C107.097 74.0276 106.878 74.1645 106.637 74.2467C106.502 74.2943 106.364 74.3308 106.224 74.3557C106.073 74.3861 105.921 74.4084 105.767 74.4227C105.417 74.4619 105.061 74.3928 104.75 74.2248C104.579 74.1163 104.436 73.969 104.334 73.7951C104.231 73.6212 104.172 73.4259 104.161 73.2252C104.124 72.8098 104.169 72.3919 104.291 71.9941C104.413 71.5739 104.582 71.1688 104.794 70.7863C105.016 70.3764 105.29 69.9964 105.609 69.6555C105.692 69.566 105.783 69.4825 105.876 69.3995C105.973 69.3176 106.076 69.2418 106.182 69.1725C106.297 69.0956 106.4 69.0507 106.513 68.9838C106.621 68.9236 106.733 68.8692 106.848 68.8209C107.763 68.4039 108.786 68.2279 109.799 68.1101C110.812 67.9923 111.846 67.9484 112.806 67.7974L113.181 67.7313C113.29 67.7113 113.414 67.683 113.53 67.6563C113.765 67.6007 113.996 67.5307 114.225 67.4565C114.675 67.3064 115.11 67.1155 115.525 66.8863C116.334 66.4359 117.024 65.8133 117.31 65.108C117.382 64.9374 117.43 64.7579 117.454 64.5743C117.478 64.3957 117.48 64.2146 117.458 64.0354C117.448 63.9449 117.432 63.8551 117.41 63.7666C117.392 63.6766 117.367 63.5879 117.336 63.5012C117.311 63.4184 117.28 63.337 117.246 63.2573C117.228 63.2103 117.207 63.1643 117.183 63.1195L117.112 62.9713C116.955 62.6813 116.743 62.4246 116.486 62.2159C116.23 62.0042 115.945 61.8292 115.64 61.6963C115.099 61.4545 114.513 61.3271 113.92 61.3223C113.495 61.3144 113.074 61.3952 112.684 61.5596C112.554 61.6164 112.431 61.6871 112.317 61.7705C112.271 61.8021 112.227 61.8378 112.187 61.877C112.169 61.8936 112.151 61.9083 112.133 61.9234L112.101 61.9579C112.079 61.9834 112.067 61.9869 112.039 62.0209C112.01 62.0549 111.986 62.0858 111.966 62.1091L111.906 62.1808C111.833 62.2687 111.743 62.3414 111.642 62.3947C111.54 62.448 111.429 62.4809 111.314 62.4915C111.2 62.5022 111.084 62.4903 110.974 62.4566C110.864 62.4228 110.761 62.368 110.672 62.2951C110.583 62.2221 110.509 62.1326 110.454 62.0316C110.4 61.9306 110.366 61.8201 110.355 61.7064C110.343 61.5927 110.354 61.478 110.388 61.3688C110.421 61.2597 110.476 61.1583 110.549 61.0704L110.587 61.0261Z" fill="black"/>
<path d="M79.1039 62.4821L78.5977 62.3205C78.1276 62.1883 77.6429 62.1155 77.1552 62.1036C77.0015 62.1067 76.8368 62.1152 76.6694 62.1272L76.4147 62.1667L76.2842 62.1869L76.1549 62.2211C75.7829 62.3081 75.4306 62.4621 75.1155 62.6755C74.7596 62.9169 74.4708 63.243 74.2753 63.6243C74.0797 64.0056 73.9837 64.4298 73.9958 64.8586C73.9911 65.7978 74.4648 66.8059 75.1635 67.7191C75.9549 68.6792 76.8839 69.5194 77.9205 70.2126C78.1996 70.3913 78.4749 70.5764 78.7589 70.7538C79.043 70.9313 79.3366 71.103 79.6367 71.2693L80.0909 71.5112L80.3187 71.6346L80.4337 71.6952L80.4638 71.7055L80.4228 71.6915L80.4378 71.6966L80.502 71.7187L81.4947 72.1482L82.4951 72.582L83.493 72.9741L84.4922 73.3712L85.5144 73.7369L86.5361 74.1085L87.5681 74.4458L88.5954 74.7831L89.6257 75.0897C89.9686 75.1891 90.3077 75.2949 90.6492 75.3894L91.6701 75.6655C92.0089 75.7546 92.3426 75.8539 92.6787 75.933L93.6797 76.1781C94.3395 76.3501 94.9973 76.479 95.6386 76.625C96.2798 76.771 96.9112 76.8833 97.5253 77.0109C98.7543 77.2497 99.9229 77.4467 101.006 77.6128C102.089 77.7789 103.088 77.9146 103.975 78.0164C104.413 78.0745 104.833 78.1071 105.219 78.1519C105.605 78.1967 105.955 78.232 106.279 78.2585C106.602 78.2849 106.883 78.3149 107.134 78.3346L107.77 78.3819L108.299 78.4244L107.772 78.4869L107.138 78.5562C106.887 78.5791 106.599 78.5996 106.277 78.622C105.955 78.6445 105.597 78.6664 105.206 78.6835C104.816 78.7006 104.394 78.716 103.942 78.7165C103.04 78.7316 102.019 78.7214 100.906 78.6689C99.7933 78.6164 98.5881 78.5216 97.3185 78.3746C96.6846 78.2961 96.0306 78.2228 95.3695 78.1123C94.7085 78.0018 94.0263 77.9038 93.3413 77.7654L92.3049 77.561C91.9574 77.4931 91.6113 77.4031 91.2597 77.3248L90.2022 77.0799C89.8497 76.9907 89.4968 76.8893 89.1417 76.7946L88.0757 76.503L87.0132 76.1703L85.9484 75.8308L84.893 75.4552L83.8408 75.0701L82.7961 74.6453L81.7583 74.2184L80.7671 73.7621L79.7855 73.3092L79.7237 73.2804L79.7086 73.2753C79.7155 73.2776 79.5949 73.2197 79.6386 73.2392L79.6072 73.2284L79.4863 73.1582L79.2453 73.0242L78.7671 72.7455C78.4522 72.5559 78.1405 72.3478 77.8419 72.1548C77.5434 71.9618 77.2505 71.7299 76.9575 71.5207C75.8268 70.6786 74.8399 69.6613 74.0351 68.5084C73.6632 67.9482 73.3682 67.3417 73.158 66.705C72.9518 66.0902 72.8759 65.4405 72.935 64.7968C72.9901 64.1919 73.201 63.6122 73.5476 63.1132C73.8603 62.6754 74.276 62.32 74.7589 62.0775C75.1647 61.8693 75.6085 61.7428 76.0647 61.7054L76.2221 61.6914L76.3744 61.6923L76.6645 61.6922C76.8509 61.7093 77.0282 61.7263 77.1941 61.75C77.6991 61.8405 78.1888 62.0029 78.6479 62.232L79.1039 62.4821Z" fill="black"/>
<path d="M79.6182 48.7203C80.7095 47.7098 81.6788 46.8282 81.7216 45.2573C83.4208 46.2387 82.278 47.4928 82.7702 48.1357C83.1356 48.6144 84.458 48.8657 84.6324 50.7376C84.0477 50.084 82.5987 49.5478 81.8317 50.1288" fill="black"/>
</g>
<g clip-path="url(#clip2_1_31)">
<path d="M60.2431 93.0575L60.1691 92.9929C60.0977 92.9272 60.0225 92.8656 59.944 92.8085C59.6493 92.5814 59.307 92.4232 58.9428 92.3458C58.6443 92.2926 58.3383 92.3012 58.0441 92.3711C57.7499 92.4409 57.4738 92.5704 57.2333 92.7515C56.5442 93.2642 56.0358 93.9792 55.7796 94.796C55.7014 95.0284 55.6434 95.2672 55.6065 95.5097C55.5943 95.572 55.5894 95.6353 55.5818 95.6976L55.5708 95.792L55.5685 95.8788C55.5637 96.013 55.5602 96.1477 55.5558 96.2851C55.5503 96.4171 55.5559 96.5494 55.5728 96.6806C55.5797 96.8123 55.5937 96.9437 55.6148 97.074L55.6933 97.477C55.7172 97.612 55.7703 97.742 55.8065 97.8767C56.1362 98.9532 56.8101 99.9696 57.5929 101.002C57.9872 101.521 58.4089 102.049 58.8285 102.619C59.0367 102.902 59.2398 103.2 59.4483 103.513L59.5948 103.753L59.668 103.873L59.705 103.934L59.7236 103.965L59.747 104.008C59.8328 104.172 59.9195 104.333 60.0047 104.502C60.09 104.672 60.17 104.875 60.247 105.064C60.3239 105.254 60.3853 105.444 60.4445 105.641C60.5648 106.045 60.653 106.457 60.7081 106.874C60.8291 107.77 60.7761 108.68 60.552 109.554C60.3036 110.488 59.8338 111.348 59.1816 112.063C59.0197 112.244 58.8458 112.413 58.6612 112.571L58.5943 112.632L58.5609 112.663L58.505 112.706L58.3713 112.811L58.1061 113.01C57.9093 113.139 57.6842 113.279 57.4715 113.396L57.1473 113.554L56.9859 113.633L56.8187 113.698C55.9402 114.038 55.0095 114.229 54.0653 114.264C53.1526 114.291 52.2387 114.263 51.3288 114.18C50.4194 114.112 49.5128 114.032 48.6068 114.018C47.7007 114.003 46.7622 114.016 45.827 114.082C44.8842 114.143 43.9464 114.261 43.0187 114.434C42.0855 114.601 41.1761 114.877 40.3091 115.255C39.8928 115.447 39.4983 115.683 39.1324 115.958C38.7887 116.216 38.4983 116.538 38.2767 116.905C38.0711 117.266 37.9472 117.668 37.9136 118.083C37.8915 118.533 37.9348 118.983 38.0422 119.421L38.1452 119.766C38.1602 119.82 38.18 119.872 38.2045 119.923L38.2617 120.058C38.302 120.158 38.3491 120.254 38.4024 120.347C38.4295 120.397 38.452 120.447 38.48 120.494L38.5718 120.636C38.819 121.022 39.1157 121.374 39.4544 121.685C39.8043 122.007 40.1785 122.302 40.5736 122.568C40.9852 122.836 41.41 123.082 41.8464 123.307C43.6135 124.215 45.5709 124.853 47.5547 125.49C48.5498 125.81 49.5559 126.12 50.572 126.513L51.3119 126.812C51.5553 126.907 51.7737 126.991 52.0236 127.082L53.5036 127.616C54.0038 127.8 54.5061 127.995 55.0074 128.22C55.5209 128.443 56.0182 128.701 56.4957 128.993C56.9991 129.3 57.4656 129.662 57.8861 130.074L58.1975 130.416L58.2361 130.46C58.2553 130.482 58.2733 130.505 58.2899 130.53L58.3506 130.611L58.471 130.771C58.5127 130.828 58.5507 130.873 58.5937 130.939L58.728 131.153C58.8193 131.293 58.9007 131.439 58.9718 131.59C59.3043 132.23 59.4539 132.948 59.4046 133.665C59.394 133.762 59.388 133.86 59.372 133.956L59.3001 134.25C59.2476 134.446 59.1757 134.636 59.0854 134.818C58.9929 134.994 58.8883 135.163 58.7725 135.325C58.6523 135.473 58.5234 135.614 58.3867 135.747C57.8822 136.199 57.2775 136.526 56.6208 136.704L56.1733 136.807L56.1185 136.82C56.0843 136.827 56.1185 136.82 56.0299 136.838L55.9327 136.85L55.7361 136.876L55.3454 136.93C55.2802 136.938 55.2172 136.948 55.1492 136.955L54.933 136.966C54.6479 136.979 54.3536 137.005 54.0764 137.003L53.2556 136.985C52.7159 136.943 52.1763 136.901 51.6518 136.815C50.6108 136.66 49.5811 136.434 48.5701 136.14C46.6272 135.552 44.7259 134.834 42.8794 133.99C42.4273 133.787 41.9765 133.584 41.5316 133.377L41.1973 133.222L41.0158 133.132L40.8426 133.041C40.618 132.922 40.4021 132.799 40.1866 132.676C39.3311 132.18 38.5108 131.657 37.7126 131.11C36.9144 130.563 36.1409 129.992 35.4051 129.384C34.6468 128.776 33.9522 128.094 33.3318 127.348C32.9863 126.933 32.7156 126.462 32.5318 125.956C32.4208 125.628 32.3888 125.28 32.4384 124.938C32.5023 124.562 32.6818 124.216 32.9524 123.947C33.1678 123.735 33.4186 123.562 33.6939 123.436C33.8169 123.375 33.9385 123.328 34.0523 123.281C34.1126 123.256 34.1724 123.242 34.2259 123.22L34.315 123.191L34.3597 123.176C34.3865 123.169 34.4136 123.162 34.441 123.157C34.5506 123.136 34.6479 123.111 34.7688 123.092C34.9125 123.078 35.0571 123.065 35.1995 123.06L35.581 123.086C35.7049 123.103 35.8238 123.13 35.9454 123.154C36.3979 123.266 36.8341 123.437 37.2428 123.661C37.6253 123.876 37.9931 124.116 38.3437 124.38C39.005 124.888 39.6317 125.439 40.2199 126.029C41.3733 127.169 42.3902 128.329 43.3785 129.394C43.8722 129.926 44.3573 130.438 44.8491 130.891C45.0877 131.112 45.3385 131.319 45.6004 131.512C45.8582 131.69 46.1267 131.853 46.4045 131.998C47.4314 132.568 48.526 133.008 49.6623 133.307C50.1576 133.437 50.6705 133.486 51.1806 133.451C51.6551 133.402 52.0944 133.211 52.3499 132.849L52.4046 132.774C52.4183 132.752 52.4306 132.73 52.4414 132.707C52.5187 132.576 52.564 132.428 52.5738 132.276C52.5819 132.079 52.5368 131.884 52.4433 131.709C52.3544 131.539 52.2409 131.383 52.1065 131.245C51.9818 131.113 51.8464 130.991 51.7018 130.881C51.2215 130.524 50.6821 130.253 50.1083 130.081C49.7537 129.959 49.378 129.912 49.005 129.942C48.9416 129.949 48.8868 129.967 48.8407 129.977C48.7945 129.986 48.7561 130.009 48.7264 130.025C48.6683 130.061 48.6403 130.08 48.6403 130.08C48.7427 129.993 48.8679 129.937 49.0015 129.917C49.379 129.863 49.7641 129.887 50.1329 129.986C50.7313 130.126 51.301 130.369 51.8163 130.703C51.9763 130.809 52.1272 130.929 52.2676 131.06C52.427 131.204 52.5631 131.371 52.6712 131.556C52.8002 131.773 52.8684 132.019 52.8688 132.27C52.867 132.409 52.8421 132.546 52.795 132.677C52.7741 132.746 52.7458 132.812 52.7105 132.874C52.6819 132.935 52.6477 132.993 52.6083 133.048C52.4531 133.283 52.2423 133.478 51.9941 133.615C51.7492 133.746 51.4831 133.834 51.2074 133.875C50.6559 133.943 50.0963 133.922 49.5506 133.811C48.9722 133.702 48.4036 133.546 47.8504 133.344C47.2595 133.133 46.6808 132.889 46.117 132.614C45.8106 132.47 45.5136 132.308 45.2277 132.127C44.9368 131.932 44.6572 131.721 44.3903 131.494C43.8514 131.041 43.3362 130.541 42.8155 130.026C41.7746 128.994 40.7314 127.87 39.5768 126.801C38.9999 126.26 38.3882 125.758 37.7454 125.297C37.4249 125.072 37.0896 124.869 36.7419 124.69C36.4062 124.52 36.0501 124.393 35.6823 124.313C35.5935 124.3 35.5038 124.282 35.4167 124.273L35.1545 124.263C35.0811 124.273 35.009 124.278 34.9365 124.28C34.864 124.283 34.7251 124.327 34.621 124.35L34.5863 124.363L34.5168 124.387C34.4716 124.403 34.4227 124.417 34.3797 124.435C34.2911 124.471 34.2024 124.507 34.1237 124.55C33.9799 124.618 33.8489 124.71 33.736 124.821C33.6645 124.89 33.618 124.98 33.6037 125.078C33.5947 125.208 33.6146 125.339 33.6618 125.46C33.8106 125.821 34.0185 126.154 34.277 126.448C34.8605 127.111 35.5098 127.716 36.2148 128.251C36.9299 128.813 37.6895 129.344 38.4742 129.855C39.259 130.366 40.0721 130.856 40.899 131.324C41.1063 131.44 41.315 131.553 41.5196 131.659L41.6706 131.735L41.818 131.804L42.1501 131.952C42.5927 132.152 43.039 132.346 43.4871 132.539C45.2886 133.33 47.1416 133.999 49.0331 134.541C49.9849 134.81 50.9537 135.013 51.9328 135.151C52.4203 135.229 52.9121 135.263 53.4072 135.301L54.1431 135.314C54.3857 135.314 54.6093 135.289 54.8496 135.283L55.0253 135.274C55.0869 135.268 55.1544 135.257 55.2183 135.249L55.6094 135.195L55.8047 135.168L55.9028 135.153C55.8513 135.161 55.9028 135.153 55.9028 135.153L55.9444 135.143L56.2754 135.068C56.6733 134.961 57.0408 134.765 57.3507 134.496C57.6063 134.271 57.7619 133.954 57.7842 133.615C57.8007 133.221 57.7088 132.829 57.5181 132.482C57.3087 132.082 57.0419 131.715 56.7261 131.392C56.3888 131.067 56.0159 130.781 55.6144 130.539C54.7913 130.038 53.8504 129.662 52.8833 129.3L51.4056 128.759C51.1598 128.674 50.8909 128.564 50.6484 128.466L49.93 128.171C48.988 127.803 47.9965 127.49 47.0024 127.167C45.0127 126.516 42.9943 125.856 41.0781 124.862C40.5966 124.608 40.1286 124.33 39.6759 124.029C39.2124 123.714 38.7753 123.362 38.3688 122.976C37.9436 122.571 37.5721 122.114 37.2636 121.616L37.1447 121.424C37.1068 121.357 37.0738 121.288 37.0391 121.22C36.9633 121.081 36.8963 120.938 36.8385 120.79L36.7477 120.557C36.7179 120.485 36.6923 120.411 36.6709 120.336L36.5515 119.91C36.4098 119.291 36.3604 118.655 36.405 118.023C36.4686 117.348 36.6805 116.695 37.0256 116.111C37.3561 115.562 37.7909 115.081 38.3062 114.696C38.77 114.352 39.2709 114.06 39.7998 113.825C40.7766 113.414 41.7998 113.119 42.8481 112.947C43.8317 112.775 44.8265 112.67 45.8254 112.632C46.8038 112.587 47.7655 112.595 48.7129 112.636C49.6602 112.677 50.5913 112.779 51.4874 112.867C52.3532 112.967 53.2241 113.013 54.095 113.007C54.9161 112.996 55.7291 112.853 56.5028 112.585L56.6449 112.536L56.7816 112.476L57.0536 112.354C57.1427 112.312 57.2187 112.26 57.302 112.218C57.3852 112.175 57.4629 112.135 57.5526 112.074L57.8223 111.884L57.9569 111.79C57.9569 111.79 58.0017 111.757 57.9669 111.783L57.9953 111.758L58.0517 111.709C58.2054 111.586 58.3505 111.453 58.4862 111.31C59.0318 110.747 59.4327 110.062 59.6555 109.312C60.0937 107.816 59.8449 106.205 59.3015 104.929C59.2262 104.761 59.1424 104.592 59.0653 104.425L58.8165 103.975C58.6362 103.674 58.4522 103.378 58.2581 103.094C57.8714 102.522 57.4717 101.974 57.0921 101.43C56.7151 100.9 56.3692 100.348 56.056 99.7789C55.75 99.2331 55.5146 98.6516 55.3555 98.0482C55.3212 97.899 55.2727 97.7555 55.2526 97.6052L55.1839 97.1558C55.1601 97.0117 55.1664 96.8553 55.1558 96.7082C55.1441 96.564 55.1428 96.4192 55.1518 96.2749C55.1626 96.1367 55.1725 96.0011 55.1819 95.8669L55.1862 95.8186L55.1877 95.7919C55.1877 95.7919 55.1975 95.7636 55.1911 95.7554L55.2086 95.6511C55.2171 95.5827 55.2292 95.5147 55.2448 95.4476C55.2966 95.1842 55.3714 94.9259 55.4684 94.6756C55.8408 93.701 56.4682 92.9663 57.1299 92.5635C57.3949 92.3885 57.6941 92.2701 58.0085 92.216C58.3228 92.1619 58.6455 92.1732 58.9561 92.2491C59.3235 92.3519 59.6633 92.5356 59.95 92.7864C60.0503 92.8676 60.1156 92.9398 60.1642 92.9852L60.2431 93.0575Z" fill="black"/>
<path d="M31.1041 127.356L30.8164 127.509L30.6014 127.633C30.4458 127.731 30.2943 127.83 30.1511 127.932C29.8648 128.14 29.5987 128.373 29.356 128.63C28.8721 129.146 28.4969 129.753 28.2522 130.416C27.9976 131.118 27.8525 131.856 27.8221 132.604C27.7879 133.395 27.834 134.188 27.9596 134.971C28.0876 135.78 28.2723 136.579 28.5123 137.364C28.6315 137.759 28.7629 138.155 28.9067 138.545C28.9786 138.741 29.0518 138.936 29.1287 139.13L29.2457 139.421L29.3628 139.698C29.5433 140.115 29.7003 140.436 29.897 140.81C30.0938 141.184 30.299 141.521 30.5238 141.862C30.9742 142.548 31.4836 143.195 32.0463 143.795C32.6141 144.4 33.2296 144.959 33.8867 145.468C34.5501 145.981 35.2486 146.449 35.9772 146.866C36.7097 147.289 37.4669 147.668 38.2446 148.002C38.6354 148.17 39.0327 148.325 39.4313 148.475L40.0403 148.684C40.2465 148.755 40.44 148.809 40.6412 148.872C41.4513 149.111 42.2776 149.291 43.1136 149.41C45.6501 149.773 48.234 149.464 50.6026 148.515L50.5734 148.529C50.8286 148.395 51.0948 148.237 51.3506 148.078C51.6064 147.92 51.8609 147.752 52.1108 147.584C52.6106 147.239 53.0957 146.873 53.566 146.487C54.5085 145.715 55.371 144.852 56.1407 143.91C56.9146 142.967 57.5578 141.925 58.0534 140.812C58.5476 139.691 58.8497 138.494 58.9474 137.271C58.906 138.507 58.6572 139.725 58.2112 140.877C57.7598 142.032 57.1553 143.121 56.4136 144.116C55.6715 145.114 54.8312 146.036 53.905 146.869C53.4421 147.287 52.9624 147.685 52.4657 148.062C52.2161 148.251 51.9629 148.433 51.7047 148.612C51.4466 148.791 51.1889 148.959 50.9057 149.126L50.8842 149.135C49.2548 149.885 47.5038 150.344 45.7106 150.493C44.8085 150.565 43.9013 150.56 42.9992 150.478C42.0976 150.397 41.2031 150.249 40.3229 150.036C40.103 149.978 39.8721 149.926 39.6613 149.865L39.0193 149.676C38.5933 149.539 38.1681 149.395 37.7453 149.239C36.8996 148.923 36.0731 148.557 35.2702 148.144C34.4607 147.728 33.6811 147.256 32.9372 146.732C32.1857 146.203 31.4777 145.616 30.8199 144.976C30.1572 144.331 29.5517 143.631 29.0106 142.883C28.7376 142.509 28.4862 142.12 28.2467 141.724C28.0072 141.328 27.7721 140.883 27.5944 140.511L27.4502 140.193L27.3087 139.885C27.2169 139.678 27.1263 139.47 27.0372 139.262C26.863 138.844 26.698 138.422 26.5462 137.992C26.2366 137.127 25.9875 136.242 25.8005 135.343C25.6056 134.418 25.5047 133.476 25.4995 132.532C25.495 131.544 25.642 130.562 25.9355 129.619C26.2469 128.637 26.7507 127.726 27.4181 126.939C27.7525 126.547 28.123 126.188 28.5248 125.865C28.7236 125.704 28.937 125.554 29.1384 125.411L29.477 125.194L29.7584 125.028L31.1041 127.356Z" fill="black"/>
<path d="M58.5867 139.026L58.65 138.957C58.6715 138.934 58.6977 138.907 58.7275 138.874C58.7573 138.84 58.8288 138.774 58.8912 138.717L58.9957 138.621L59.1056 138.537C59.1872 138.471 59.2731 138.411 59.3628 138.356C59.5787 138.218 59.8084 138.103 60.0483 138.013C61.1035 137.606 62.7075 137.566 64.2891 138.374C64.7064 138.585 65.0918 138.853 65.4339 139.17C65.6201 139.341 65.7895 139.53 65.9397 139.733C66.103 139.95 66.2402 140.184 66.3486 140.432L66.4125 140.584C66.4332 140.635 66.4539 140.681 66.4754 140.756C66.5237 140.884 66.5651 141.014 66.5996 141.146C66.8349 141.963 66.7668 142.834 66.4078 143.601C66.2867 143.857 66.135 144.097 65.9561 144.317C65.7836 144.535 65.5902 144.735 65.3787 144.915C64.9657 145.27 64.5079 145.569 64.0166 145.807C63.5347 146.042 63.0314 146.231 62.5132 146.372C62.2543 146.442 61.994 146.507 61.7283 146.556C61.5932 146.581 61.4681 146.603 61.3244 146.622L60.9425 146.667C59.8734 146.776 58.8593 146.765 57.8667 146.82C56.8741 146.876 55.9176 146.999 55.069 147.333C54.9616 147.371 54.8567 147.415 54.7549 147.466C54.6576 147.514 54.5406 147.561 54.4596 147.61C54.3677 147.663 54.2794 147.722 54.195 147.785C54.11 147.851 54.0285 147.921 53.9508 147.995C53.6423 148.293 53.3733 148.629 53.15 148.994C52.9328 149.342 52.7546 149.712 52.6186 150.099C52.4882 150.452 52.4269 150.827 52.4379 151.204C52.4424 151.375 52.4835 151.544 52.5583 151.698C52.6261 151.843 52.7337 151.966 52.8688 152.053C53.1391 152.211 53.4512 152.285 53.7637 152.264C53.9112 152.259 54.0582 152.245 54.204 152.222C54.2747 152.212 54.3477 152.203 54.4103 152.19C54.4728 152.177 54.5486 152.161 54.608 152.139C54.8384 152.073 55.0503 151.956 55.2273 151.797C55.3692 151.666 55.4624 151.492 55.4918 151.302C55.5108 151.159 55.49 151.013 55.4316 150.881C55.3829 150.77 55.319 150.665 55.2418 150.571C55.3222 150.662 55.3903 150.762 55.4445 150.87C55.5121 151.005 55.5414 151.155 55.5292 151.304C55.5087 151.508 55.4194 151.7 55.2758 151.847C55.0972 152.028 54.8784 152.165 54.6366 152.247C54.5023 152.294 54.3642 152.331 54.2237 152.356C54.073 152.386 53.9206 152.408 53.7674 152.423C53.4165 152.462 53.0613 152.393 52.7502 152.225C52.579 152.116 52.4362 151.969 52.3337 151.795C52.2311 151.621 52.1718 151.426 52.1605 151.225C52.1245 150.81 52.1688 150.392 52.2913 149.994C52.4131 149.574 52.5817 149.169 52.7941 148.786C53.0163 148.376 53.2903 147.996 53.6093 147.655C53.6919 147.566 53.7831 147.483 53.8757 147.399C53.9731 147.318 54.0755 147.242 54.1824 147.172C54.2973 147.096 54.3997 147.051 54.5127 146.984C54.6214 146.924 54.7333 146.869 54.8479 146.821C55.7631 146.404 56.7865 146.228 57.799 146.11C58.8116 145.992 59.846 145.948 60.8059 145.797L61.1811 145.731C61.2902 145.711 61.4144 145.683 61.5304 145.656C61.7646 145.601 61.9962 145.531 62.2246 145.456C62.675 145.306 63.1103 145.115 63.5251 144.886C64.3343 144.436 65.024 143.813 65.3101 143.108C65.3818 142.937 65.43 142.758 65.4535 142.574C65.4781 142.396 65.4797 142.215 65.4583 142.035C65.448 141.945 65.4319 141.855 65.4101 141.767C65.3919 141.677 65.3672 141.588 65.3363 141.501C65.3106 141.418 65.2804 141.337 65.246 141.257C65.2277 141.21 65.2068 141.164 65.1833 141.12L65.1121 140.971C64.9554 140.681 64.7426 140.425 64.486 140.216C64.23 140.004 63.9452 139.829 63.6402 139.696C63.0987 139.454 62.5129 139.327 61.9204 139.322C61.4954 139.314 61.074 139.395 60.6837 139.56C60.554 139.616 60.4309 139.687 60.3168 139.77C60.2705 139.802 60.2271 139.838 60.1872 139.877C60.1693 139.894 60.1505 139.908 60.1331 139.923L60.1015 139.958C60.079 139.983 60.0671 139.987 60.0387 140.021C60.0102 140.055 59.9858 140.086 59.9657 140.109L59.906 140.181C59.833 140.269 59.7433 140.341 59.6418 140.395C59.5403 140.448 59.429 140.481 59.3144 140.492C59.1998 140.502 59.0841 140.49 58.9738 140.457C58.8636 140.423 58.761 140.368 58.6718 140.295C58.5827 140.222 58.5088 140.133 58.4544 140.032C58.4 139.931 58.366 139.82 58.3546 139.706C58.3432 139.593 58.3544 139.478 58.3877 139.369C58.421 139.26 58.4756 139.158 58.5486 139.07L58.5867 139.026Z" fill="black"/>
<path d="M27.1039 140.482L26.5977 140.321C26.1276 140.188 25.6429 140.115 25.1551 140.104C25.0014 140.107 24.8368 140.115 24.6694 140.127L24.4147 140.167L24.2841 140.187L24.1549 140.221C23.7829 140.308 23.4306 140.462 23.1154 140.675C22.7596 140.917 22.4708 141.243 22.2752 141.624C22.0797 142.006 21.9836 142.43 21.9958 142.859C21.9911 143.798 22.4648 144.806 23.1634 145.719C23.9548 146.679 24.8838 147.519 25.9205 148.213C26.1995 148.391 26.4749 148.576 26.7589 148.754C27.0429 148.931 27.3366 149.103 27.6366 149.269L28.0909 149.511L28.3187 149.635L28.4337 149.695L28.4637 149.706L28.4228 149.691L28.4378 149.697L28.502 149.719L29.4946 150.148L30.495 150.582L31.4929 150.974L32.4922 151.371L33.5144 151.737L34.5361 152.108L35.568 152.446L36.5954 152.783L37.6257 153.09C37.9685 153.189 38.3077 153.295 38.6492 153.389L39.6701 153.666C40.0088 153.755 40.3426 153.854 40.6787 153.933L41.6796 154.178C42.3395 154.35 42.9973 154.479 43.6385 154.625C44.2798 154.771 44.9112 154.883 45.5252 155.011C46.7542 155.25 47.9229 155.447 49.0059 155.613C50.0889 155.779 51.0878 155.915 51.9746 156.016C52.4125 156.075 52.8333 156.107 53.2193 156.152C53.6053 156.197 53.9548 156.232 54.2785 156.258C54.6021 156.285 54.8833 156.315 55.1345 156.335L55.7699 156.382L56.2986 156.424L55.772 156.487L55.1378 156.556C54.8873 156.579 54.5995 156.6 54.2774 156.622C53.9553 156.644 53.5968 156.666 53.2063 156.684C52.8159 156.701 52.394 156.716 51.9421 156.717C51.0395 156.732 50.019 156.721 48.9062 156.669C47.7933 156.616 46.5881 156.522 45.3185 156.375C44.6846 156.296 44.0306 156.223 43.3695 156.112C42.7084 156.002 42.0263 155.904 41.3412 155.765L40.3049 155.561C39.9573 155.493 39.6113 155.403 39.2596 155.325L38.2021 155.08C37.8497 154.991 37.4968 154.889 37.1416 154.795L36.0757 154.503L35.0132 154.17L33.9484 153.831L32.893 153.455L31.8408 153.07L30.7961 152.645L29.7582 152.218L28.7671 151.762L27.7855 151.309L27.7236 151.28L27.7086 151.275C27.7154 151.278 27.5949 151.22 27.6386 151.239L27.6072 151.228L27.4863 151.158L27.2453 151.024L26.7671 150.745C26.4521 150.556 26.1404 150.348 25.8419 150.155C25.5434 149.962 25.2505 149.73 24.9575 149.521C23.8268 148.679 22.8398 147.661 22.035 146.508C21.6631 145.948 21.3682 145.342 21.158 144.705C20.9518 144.09 20.8759 143.44 20.935 142.797C20.99 142.192 21.201 141.612 21.5475 141.113C21.8603 140.675 22.276 140.32 22.7589 140.078C23.1647 139.869 23.6084 139.743 24.0647 139.705L24.2221 139.691L24.3744 139.692L24.6644 139.692C24.8509 139.709 25.0282 139.726 25.194 139.75C25.6991 139.841 26.1888 140.003 26.6479 140.232L27.1039 140.482Z" fill="black"/>
<path d="M27.6181 126.72C28.7095 125.71 29.6788 124.828 29.7216 123.257C31.4208 124.239 30.278 125.493 30.7701 126.136C31.1355 126.614 32.458 126.866 32.6324 128.738C32.0477 128.084 30.5987 127.548 29.8317 128.129" fill="black"/>
</g>
<g clip-path="url(#clip3_1_31)">
<path d="M133.243 60.0575L133.169 59.9929C133.098 59.9272 133.023 59.8656 132.944 59.8085C132.649 59.5814 132.307 59.4232 131.943 59.3458C131.644 59.2926 131.338 59.3012 131.044 59.3711C130.75 59.4409 130.474 59.5704 130.233 59.7515C129.544 60.2642 129.036 60.9792 128.78 61.796C128.701 62.0284 128.643 62.2672 128.607 62.5098C128.594 62.572 128.589 62.6353 128.582 62.6976L128.571 62.792L128.569 62.8788C128.564 63.013 128.56 63.1477 128.556 63.2851C128.55 63.4171 128.556 63.5494 128.573 63.6806C128.58 63.8123 128.594 63.9437 128.615 64.074L128.693 64.477C128.717 64.612 128.77 64.742 128.807 64.8767C129.136 65.9532 129.81 66.9696 130.593 68.0022C130.987 68.5211 131.409 69.0492 131.829 69.619C132.037 69.9018 132.24 70.1995 132.448 70.5127L132.595 70.7532L132.668 70.8734L132.705 70.9345L132.724 70.965L132.747 71.0078C132.833 71.1716 132.919 71.3327 133.005 71.5023C133.09 71.672 133.17 71.8747 133.247 72.0641C133.324 72.2536 133.385 72.4438 133.444 72.6408C133.565 73.0447 133.653 73.4571 133.708 73.8744C133.829 74.7704 133.776 75.68 133.552 76.5541C133.304 77.488 132.834 78.3483 132.182 79.0635C132.02 79.2438 131.846 79.4132 131.661 79.5706L131.594 79.6322L131.561 79.663L131.505 79.7057L131.371 79.8109L131.106 80.0099C130.909 80.1387 130.684 80.2789 130.472 80.3963L130.147 80.5539L129.986 80.6329L129.819 80.6978C128.94 81.0378 128.01 81.229 127.065 81.2636C126.153 81.2915 125.239 81.2634 124.329 81.1796C123.419 81.1124 122.513 81.0325 121.607 81.0177C120.701 81.0029 119.762 81.0162 118.827 81.082C117.884 81.1431 116.946 81.2607 116.019 81.4341C115.086 81.6012 114.176 81.8767 113.309 82.2549C112.893 82.4475 112.498 82.6832 112.132 82.9582C111.789 83.2164 111.498 83.5376 111.277 83.9045C111.071 84.2662 110.947 84.6684 110.914 85.0832C110.892 85.5327 110.935 85.9834 111.042 86.4214L111.145 86.7663C111.16 86.8201 111.18 86.8724 111.205 86.9226L111.262 87.0585C111.302 87.1576 111.349 87.2539 111.402 87.3468C111.429 87.3969 111.452 87.4469 111.48 87.4943L111.572 87.636C111.819 88.0218 112.116 88.3744 112.454 88.6847C112.804 89.007 113.179 89.3025 113.574 89.5684C113.985 89.8356 114.41 90.0821 114.846 90.307C116.614 91.2151 118.571 91.8533 120.555 92.4899C121.55 92.8101 122.556 93.1205 123.572 93.5128L124.312 93.8119C124.555 93.9074 124.774 93.9914 125.024 94.0816L126.504 94.6165C127.004 94.8001 127.506 94.9951 128.007 95.2199C128.521 95.443 129.018 95.7014 129.496 95.9931C129.999 96.2997 130.466 96.6624 130.886 97.074L131.198 97.4164L131.236 97.4598C131.255 97.4821 131.273 97.5054 131.29 97.5297L131.351 97.6109L131.471 97.7715C131.513 97.828 131.551 97.8728 131.594 97.9389L131.728 98.1526C131.819 98.2925 131.901 98.4385 131.972 98.5896C132.304 99.2304 132.454 99.9481 132.405 100.665C132.394 100.762 132.388 100.86 132.372 100.956L132.3 101.25C132.248 101.446 132.176 101.636 132.085 101.818C131.993 101.994 131.888 102.163 131.773 102.325C131.652 102.473 131.523 102.614 131.387 102.747C130.882 103.199 130.277 103.526 129.621 103.704L129.173 103.807L129.119 103.82C129.084 103.827 129.119 103.82 129.03 103.838L128.933 103.85L128.736 103.876L128.345 103.93C128.28 103.938 128.217 103.948 128.149 103.955L127.933 103.966C127.648 103.979 127.354 104.005 127.076 104.003L126.256 103.985C125.716 103.943 125.176 103.901 124.652 103.815C123.611 103.66 122.581 103.434 121.57 103.14C119.627 102.552 117.726 101.834 115.879 100.99C115.427 100.787 114.977 100.584 114.532 100.377L114.197 100.222L114.016 100.132L113.843 100.041C113.618 99.9218 113.402 99.7994 113.187 99.6757C112.331 99.1799 111.511 98.6569 110.713 98.1098C109.914 97.5627 109.141 96.9924 108.405 96.3836C107.647 95.7759 106.952 95.0939 106.332 94.3481C105.986 93.933 105.716 93.4621 105.532 92.9562C105.421 92.6283 105.389 92.2796 105.438 91.9381C105.502 91.5625 105.682 91.2164 105.952 90.9471C106.168 90.7354 106.419 90.5625 106.694 90.4358C106.817 90.3753 106.938 90.3279 107.052 90.2809C107.113 90.2563 107.172 90.2421 107.226 90.2196L107.315 90.1913L107.36 90.1764C107.387 90.1687 107.414 90.1624 107.441 90.1575C107.551 90.1362 107.648 90.1107 107.769 90.0917C107.913 90.0776 108.057 90.0653 108.199 90.0597L108.581 90.0864C108.705 90.1033 108.824 90.1304 108.945 90.154C109.398 90.2664 109.834 90.4368 110.243 90.6609C110.625 90.8761 110.993 91.1163 111.344 91.3798C112.005 91.888 112.632 92.439 113.22 93.0291C114.373 94.1692 115.39 95.3289 116.379 96.3942C116.872 96.926 117.357 97.4382 117.849 97.8908C118.088 98.1117 118.339 98.3192 118.6 98.5124C118.858 98.6905 119.127 98.8527 119.404 98.9981C120.431 99.5685 121.526 100.008 122.662 100.307C123.158 100.437 123.671 100.486 124.181 100.451C124.655 100.402 125.094 100.211 125.35 99.8489L125.405 99.774C125.418 99.7524 125.431 99.7298 125.441 99.7066C125.519 99.5756 125.564 99.4282 125.574 99.2763C125.582 99.0794 125.537 98.8836 125.443 98.7091C125.354 98.539 125.241 98.3825 125.107 98.2447C124.982 98.1128 124.846 97.9911 124.702 97.8809C124.222 97.5237 123.682 97.2528 123.108 97.0806C122.754 96.9591 122.378 96.912 122.005 96.9423C121.942 96.9493 121.887 96.9667 121.841 96.9766C121.795 96.9864 121.756 97.0095 121.726 97.025C121.668 97.0609 121.64 97.08 121.64 97.08C121.743 96.9931 121.868 96.9366 122.002 96.917C122.379 96.8632 122.764 96.8868 123.133 96.9864C123.731 97.1262 124.301 97.3686 124.816 97.7027C124.976 97.8094 125.127 97.9288 125.268 98.0599C125.427 98.2039 125.563 98.3713 125.671 98.5562C125.8 98.7728 125.868 99.0194 125.869 99.2703C125.867 99.4091 125.842 99.5465 125.795 99.6769C125.774 99.7456 125.746 99.8118 125.71 99.8744C125.682 99.9352 125.648 99.9933 125.608 100.048C125.453 100.283 125.242 100.478 124.994 100.615C124.749 100.746 124.483 100.834 124.207 100.875C123.656 100.943 123.096 100.922 122.551 100.811C121.972 100.702 121.404 100.546 120.85 100.344C120.26 100.133 119.681 99.8891 119.117 99.6137C118.811 99.4704 118.514 99.308 118.228 99.1275C117.937 98.9323 117.657 98.7209 117.39 98.4945C116.851 98.0409 116.336 97.541 115.816 97.0256C114.775 95.9936 113.731 94.8702 112.577 93.8006C112 93.2603 111.388 92.7579 110.745 92.2966C110.425 92.0722 110.09 91.8694 109.742 91.6897C109.406 91.5195 109.05 91.3928 108.682 91.3126C108.594 91.3003 108.504 91.2816 108.417 91.2729L108.155 91.263C108.081 91.2725 108.009 91.278 107.937 91.2803C107.864 91.2826 107.725 91.3271 107.621 91.3503L107.586 91.3625L107.517 91.387C107.472 91.4032 107.423 91.4167 107.38 91.4352C107.291 91.4712 107.202 91.5072 107.124 91.5497C106.98 91.618 106.849 91.7099 106.736 91.8214C106.665 91.89 106.618 91.9802 106.604 92.0781C106.595 92.208 106.615 92.3385 106.662 92.4604C106.811 92.8207 107.018 93.1543 107.277 93.4476C107.861 94.1114 108.51 94.7156 109.215 95.2509C109.93 95.8133 110.69 96.3441 111.474 96.8549C112.259 97.3657 113.072 97.856 113.899 98.3238C114.106 98.4403 114.315 98.5526 114.52 98.659L114.671 98.735L114.818 98.8037L115.15 98.9523C115.593 99.1524 116.039 99.3463 116.487 99.5392C118.289 100.33 120.142 100.999 122.033 101.541C122.985 101.81 123.954 102.013 124.933 102.151C125.42 102.229 125.912 102.263 126.407 102.301L127.143 102.314C127.386 102.314 127.609 102.289 127.85 102.283L128.025 102.274C128.087 102.268 128.154 102.257 128.218 102.249L128.609 102.195L128.805 102.168L128.903 102.153C128.851 102.161 128.903 102.153 128.903 102.153L128.944 102.143L129.275 102.068C129.673 101.961 130.041 101.765 130.351 101.496C130.606 101.271 130.762 100.954 130.784 100.615C130.801 100.221 130.709 99.8292 130.518 99.4818C130.309 99.0825 130.042 98.7152 129.726 98.3916C129.389 98.0671 129.016 97.7811 128.614 97.5392C127.791 97.0379 126.85 96.6623 125.883 96.3004L124.406 95.7588C124.16 95.6745 123.891 95.5642 123.648 95.4659L122.93 95.1711C121.988 94.8027 120.997 94.4899 120.002 94.167C118.013 93.5162 115.994 92.8557 114.078 91.8617C113.597 91.6083 113.129 91.3303 112.676 91.0288C112.212 90.7135 111.775 90.3616 111.369 89.9765C110.944 89.5713 110.572 89.114 110.264 88.6158L110.145 88.4241C110.107 88.3567 110.074 88.288 110.039 88.2202C109.963 88.0812 109.896 87.9377 109.839 87.7905L109.748 87.557C109.718 87.4848 109.692 87.4109 109.671 87.3359L109.552 86.9098C109.41 86.2909 109.36 85.6553 109.405 85.0233C109.469 84.3479 109.68 83.6954 110.026 83.1115C110.356 82.5618 110.791 82.0812 111.306 81.6963C111.77 81.3524 112.271 81.0603 112.8 80.8254C113.777 80.4139 114.8 80.1191 115.848 79.947C116.832 79.7751 117.826 79.6698 118.825 79.6318C119.804 79.5868 120.766 79.595 121.713 79.6361C122.66 79.6771 123.591 79.779 124.487 79.8674C125.353 79.9669 126.224 80.0135 127.095 80.0068C127.916 79.9956 128.729 79.8533 129.503 79.5853L129.645 79.5359L129.782 79.4755L130.054 79.3544C130.143 79.3125 130.219 79.26 130.302 79.2176C130.385 79.1752 130.463 79.1354 130.553 79.0741L130.822 78.8841L130.957 78.7899C130.957 78.7899 131.002 78.7569 130.967 78.7828L130.995 78.7578L131.052 78.7091C131.205 78.5859 131.351 78.4525 131.486 78.31C132.032 77.747 132.433 77.0617 132.655 76.3115C133.094 74.8158 132.845 73.2053 132.302 71.9286C132.226 71.7609 132.142 71.5916 132.065 71.4248L131.817 70.9755C131.636 70.6736 131.452 70.3779 131.258 70.0939C130.871 69.5218 130.472 68.974 130.092 68.43C129.715 67.8997 129.369 67.3484 129.056 66.7789C128.75 66.2332 128.515 65.6516 128.356 65.0482C128.321 64.899 128.273 64.7555 128.253 64.6052L128.184 64.1558C128.16 64.0117 128.166 63.8553 128.156 63.7082C128.144 63.564 128.143 63.4192 128.152 63.2749C128.163 63.1367 128.172 63.0011 128.182 62.867L128.186 62.8186L128.188 62.792C128.188 62.792 128.197 62.7636 128.191 62.7554L128.209 62.6511C128.217 62.5827 128.229 62.5148 128.245 62.4476C128.297 62.1842 128.371 61.9259 128.468 61.6756C128.841 60.701 129.468 59.9663 130.13 59.5635C130.395 59.3885 130.694 59.2701 131.008 59.216C131.323 59.1619 131.646 59.1732 131.956 59.2492C132.324 59.3519 132.663 59.5356 132.95 59.7864C133.05 59.8676 133.116 59.9398 133.164 59.9852L133.243 60.0575Z" fill="black"/>
<path d="M104.104 94.3557L103.816 94.5092L103.601 94.6333C103.446 94.7309 103.294 94.83 103.151 94.9318C102.865 95.1397 102.599 95.3735 102.356 95.6301C101.872 96.1462 101.497 96.753 101.252 97.4155C100.998 98.1184 100.853 98.8564 100.822 99.6041C100.788 100.395 100.834 101.188 100.96 101.971C101.088 102.78 101.272 103.579 101.512 104.364C101.631 104.759 101.763 105.155 101.907 105.545C101.979 105.741 102.052 105.936 102.129 106.13L102.246 106.421L102.363 106.698C102.543 107.115 102.7 107.436 102.897 107.81C103.094 108.184 103.299 108.521 103.524 108.862C103.974 109.548 104.484 110.195 105.046 110.795C105.614 111.4 106.23 111.959 106.887 112.468C107.55 112.981 108.249 113.449 108.977 113.866C109.71 114.289 110.467 114.668 111.245 115.002C111.635 115.17 112.033 115.325 112.431 115.475L113.04 115.684C113.247 115.755 113.44 115.809 113.641 115.872C114.451 116.111 115.278 116.291 116.114 116.41C118.65 116.773 121.234 116.464 123.603 115.515L123.573 115.529C123.829 115.395 124.095 115.237 124.351 115.078C124.606 114.92 124.861 114.752 125.111 114.584C125.611 114.239 126.096 113.873 126.566 113.487C127.509 112.715 128.371 111.852 129.141 110.91C129.915 109.967 130.558 108.925 131.053 107.812C131.548 106.691 131.85 105.494 131.947 104.271C131.906 105.507 131.657 106.725 131.211 107.877C130.76 109.032 130.155 110.121 129.414 111.116C128.672 112.114 127.831 113.036 126.905 113.869C126.442 114.287 125.962 114.685 125.466 115.062C125.216 115.251 124.963 115.433 124.705 115.612C124.447 115.791 124.189 115.959 123.906 116.126L123.884 116.135C122.255 116.885 120.504 117.344 118.711 117.493C117.809 117.565 116.901 117.56 115.999 117.478C115.098 117.397 114.203 117.249 113.323 117.036C113.103 116.978 112.872 116.926 112.661 116.865L112.019 116.676C111.593 116.539 111.168 116.395 110.745 116.239C109.9 115.923 109.073 115.557 108.27 115.144C107.461 114.728 106.681 114.256 105.937 113.732C105.186 113.203 104.478 112.616 103.82 111.976C103.157 111.331 102.552 110.631 102.011 109.883C101.738 109.509 101.486 109.12 101.247 108.724C101.007 108.328 100.772 107.883 100.594 107.511L100.45 107.193L100.309 106.885C100.217 106.678 100.126 106.47 100.037 106.262C99.863 105.844 99.698 105.422 99.5462 104.992C99.2366 104.127 98.9875 103.242 98.8006 102.343C98.6056 101.418 98.5047 100.476 98.4995 99.5323C98.495 98.5441 98.642 97.5619 98.9355 96.6194C99.247 95.6368 99.7508 94.7259 100.418 93.9386C100.753 93.5475 101.123 93.1882 101.525 92.8655C101.724 92.7041 101.937 92.5538 102.138 92.4115L102.477 92.1939L102.758 92.0276L104.104 94.3557Z" fill="black"/>
<path d="M131.587 106.026L131.65 105.957C131.672 105.934 131.698 105.907 131.728 105.874C131.757 105.84 131.829 105.774 131.891 105.717L131.996 105.621L132.106 105.537C132.187 105.471 132.273 105.411 132.363 105.356C132.579 105.218 132.808 105.103 133.048 105.013C134.104 104.606 135.708 104.566 137.289 105.374C137.706 105.585 138.092 105.853 138.434 106.17C138.62 106.341 138.79 106.53 138.94 106.733C139.103 106.95 139.24 107.184 139.349 107.432L139.413 107.584C139.433 107.635 139.454 107.681 139.475 107.756C139.524 107.884 139.565 108.014 139.6 108.146C139.835 108.963 139.767 109.834 139.408 110.601C139.287 110.857 139.135 111.097 138.956 111.317C138.784 111.535 138.59 111.735 138.379 111.915C137.966 112.27 137.508 112.569 137.017 112.807C136.535 113.042 136.031 113.231 135.513 113.372C135.254 113.442 134.994 113.507 134.728 113.556C134.593 113.581 134.468 113.603 134.324 113.622L133.943 113.667C132.873 113.776 131.859 113.765 130.867 113.82C129.874 113.876 128.918 113.999 128.069 114.333C127.962 114.371 127.857 114.415 127.755 114.466C127.658 114.514 127.541 114.561 127.46 114.61C127.368 114.663 127.279 114.722 127.195 114.785C127.11 114.851 127.029 114.921 126.951 114.995C126.642 115.293 126.373 115.629 126.15 115.994C125.933 116.342 125.755 116.712 125.619 117.099C125.488 117.452 125.427 117.827 125.438 118.204C125.442 118.375 125.484 118.544 125.558 118.698C125.626 118.843 125.734 118.966 125.869 119.053C126.139 119.211 126.451 119.285 126.764 119.264C126.911 119.259 127.058 119.245 127.204 119.222C127.275 119.212 127.348 119.203 127.41 119.19C127.473 119.177 127.549 119.161 127.608 119.139C127.838 119.073 128.05 118.956 128.227 118.797C128.369 118.666 128.462 118.492 128.492 118.302C128.511 118.159 128.49 118.013 128.432 117.881C128.383 117.77 128.319 117.665 128.242 117.571C128.322 117.662 128.39 117.762 128.444 117.87C128.512 118.005 128.541 118.155 128.529 118.304C128.509 118.508 128.419 118.7 128.276 118.847C128.097 119.028 127.878 119.165 127.637 119.247C127.502 119.294 127.364 119.331 127.224 119.356C127.073 119.386 126.921 119.408 126.767 119.423C126.417 119.462 126.061 119.393 125.75 119.225C125.579 119.116 125.436 118.969 125.334 118.795C125.231 118.621 125.172 118.426 125.161 118.225C125.124 117.81 125.169 117.392 125.291 116.994C125.413 116.574 125.582 116.169 125.794 115.786C126.016 115.376 126.29 114.996 126.609 114.655C126.692 114.566 126.783 114.483 126.876 114.399C126.973 114.318 127.076 114.242 127.182 114.172C127.297 114.096 127.4 114.051 127.513 113.984C127.621 113.924 127.733 113.869 127.848 113.821C128.763 113.404 129.786 113.228 130.799 113.11C131.812 112.992 132.846 112.948 133.806 112.797L134.181 112.731C134.29 112.711 134.414 112.683 134.53 112.656C134.765 112.601 134.996 112.531 135.225 112.456C135.675 112.306 136.11 112.115 136.525 111.886C137.334 111.436 138.024 110.813 138.31 110.108C138.382 109.937 138.43 109.758 138.454 109.574C138.478 109.396 138.48 109.215 138.458 109.035C138.448 108.945 138.432 108.855 138.41 108.767C138.392 108.677 138.367 108.588 138.336 108.501C138.311 108.418 138.28 108.337 138.246 108.257C138.228 108.21 138.207 108.164 138.183 108.12L138.112 107.971C137.955 107.681 137.743 107.425 137.486 107.216C137.23 107.004 136.945 106.829 136.64 106.696C136.099 106.454 135.513 106.327 134.92 106.322C134.495 106.314 134.074 106.395 133.684 106.56C133.554 106.616 133.431 106.687 133.317 106.77C133.271 106.802 133.227 106.838 133.187 106.877C133.169 106.894 133.151 106.908 133.133 106.923L133.101 106.958C133.079 106.983 133.067 106.987 133.039 107.021C133.01 107.055 132.986 107.086 132.966 107.109L132.906 107.181C132.833 107.269 132.743 107.341 132.642 107.395C132.54 107.448 132.429 107.481 132.314 107.492C132.2 107.502 132.084 107.49 131.974 107.457C131.864 107.423 131.761 107.368 131.672 107.295C131.583 107.222 131.509 107.133 131.454 107.032C131.4 106.931 131.366 106.82 131.355 106.706C131.343 106.593 131.354 106.478 131.388 106.369C131.421 106.26 131.476 106.158 131.549 106.07L131.587 106.026Z" fill="black"/>
<path d="M100.104 107.482L99.5977 107.321C99.1276 107.188 98.6429 107.115 98.1552 107.104C98.0015 107.107 97.8368 107.115 97.6694 107.127L97.4147 107.167L97.2842 107.187L97.1549 107.221C96.7829 107.308 96.4306 107.462 96.1155 107.675C95.7596 107.917 95.4708 108.243 95.2753 108.624C95.0797 109.006 94.9837 109.43 94.9958 109.859C94.9911 110.798 95.4648 111.806 96.1635 112.719C96.9549 113.679 97.8839 114.519 98.9205 115.213C99.1996 115.391 99.4749 115.576 99.7589 115.754C100.043 115.931 100.337 116.103 100.637 116.269L101.091 116.511L101.319 116.635L101.434 116.695L101.464 116.706L101.423 116.691L101.438 116.697L101.502 116.719L102.495 117.148L103.495 117.582L104.493 117.974L105.492 118.371L106.514 118.737L107.536 119.108L108.568 119.446L109.595 119.783L110.626 120.09C110.969 120.189 111.308 120.295 111.649 120.389L112.67 120.666C113.009 120.755 113.343 120.854 113.679 120.933L114.68 121.178C115.34 121.35 115.997 121.479 116.639 121.625C117.28 121.771 117.911 121.883 118.525 122.011C119.754 122.25 120.923 122.447 122.006 122.613C123.089 122.779 124.088 122.915 124.975 123.016C125.413 123.075 125.833 123.107 126.219 123.152C126.605 123.197 126.955 123.232 127.279 123.258C127.602 123.285 127.883 123.315 128.134 123.335L128.77 123.382L129.299 123.424L128.772 123.487L128.138 123.556C127.887 123.579 127.599 123.6 127.277 123.622C126.955 123.644 126.597 123.666 126.206 123.684C125.816 123.701 125.394 123.716 124.942 123.717C124.04 123.732 123.019 123.721 121.906 123.669C120.793 123.616 119.588 123.522 118.318 123.375C117.685 123.296 117.031 123.223 116.37 123.112C115.708 123.002 115.026 122.904 114.341 122.765L113.305 122.561C112.957 122.493 112.611 122.403 112.26 122.325L111.202 122.08C110.85 121.991 110.497 121.889 110.142 121.795L109.076 121.503L108.013 121.17L106.948 120.831L105.893 120.455L104.841 120.07L103.796 119.645L102.758 119.218L101.767 118.762L100.786 118.309L100.724 118.28L100.709 118.275C100.715 118.278 100.595 118.22 100.639 118.239L100.607 118.228L100.486 118.158L100.245 118.024L99.7671 117.745C99.4522 117.556 99.1405 117.348 98.8419 117.155C98.5434 116.962 98.2505 116.73 97.9575 116.521C96.8268 115.679 95.8399 114.661 95.0351 113.508C94.6632 112.948 94.3682 112.342 94.158 111.705C93.9518 111.09 93.8759 110.44 93.935 109.797C93.9901 109.192 94.201 108.612 94.5476 108.113C94.8603 107.675 95.276 107.32 95.7589 107.078C96.1647 106.869 96.6085 106.743 97.0647 106.705L97.2221 106.691L97.3744 106.692L97.6645 106.692C97.8509 106.709 98.0282 106.726 98.1941 106.75C98.6991 106.841 99.1888 107.003 99.6479 107.232L100.104 107.482Z" fill="black"/>
<path d="M100.618 93.7202C101.709 92.7098 102.679 91.8282 102.722 90.2572C104.421 91.2387 103.278 92.4928 103.77 93.1357C104.136 93.6144 105.458 93.8657 105.632 95.7376C105.048 95.084 103.599 94.5478 102.832 95.1288" fill="black"/>
</g>
<defs>
<clipPath id="clip0_1_31">
<rect width="55" height="76" fill="white" transform="translate(24.8163 18.1335) rotate(18.9317)"/>
</clipPath>
<clipPath id="clip1_1_31">
<rect width="55" height="76" fill="white" transform="translate(87.6575) rotate(18.9317)"/>
</clipPath>
<clipPath id="clip2_1_31">
<rect width="55" height="76" fill="white" transform="translate(35.6575 78) rotate(18.9317)"/>
</clipPath>
<clipPath id="clip3_1_31">
<rect width="55" height="76" fill="white" transform="translate(108.658 45) rotate(18.9317)"/>
</clipPath>
</defs>
</svg>
