<svg width="49" height="48" viewBox="0 0 49 48" fill="none" xmlns="http://www.w3.org/2000/svg">
<path d="M35.6575 17C35.6575 10.373 30.7325 5 24.6575 5C18.5825 5 13.6575 10.373 13.6575 17M5.6575 17H43.6575L39.4575 43H9.8575L5.6575 17Z" stroke="#699BF7" stroke-width="4" stroke-linecap="round" stroke-linejoin="round"/>
<path d="M17.6575 28C18.7621 28 19.6575 27.1046 19.6575 26C19.6575 24.8954 18.7621 24 17.6575 24C16.5529 24 15.6575 24.8954 15.6575 26C15.6575 27.1046 16.5529 28 17.6575 28Z" fill="#699BF7"/>
<path d="M18.6575 33C18.6575 33 20.6575 36 24.6575 36C28.6575 36 30.6575 33 30.6575 33" stroke="#699BF7" stroke-width="4" stroke-linecap="round" stroke-linejoin="round"/>
<path d="M31.6575 28C32.7621 28 33.6575 27.1046 33.6575 26C33.6575 24.8954 32.7621 24 31.6575 24C30.5529 24 29.6575 24.8954 29.6575 26C29.6575 27.1046 30.5529 28 31.6575 28Z" fill="#699BF7"/>
</svg>
